<svg width="104" height="136" viewBox="0 0 104 136" fill="none" xmlns="http://www.w3.org/2000/svg">
<path d="M56.4863 4.06641C58.5115 3.78229 60.7525 4.37845 62.2402 6.16504C63.777 8.01085 63.9156 10.4111 63.0967 12.4385L63.0977 12.4395C62.8082 13.156 62.3983 13.7703 62.1221 14.1631C61.8339 14.5728 61.4828 15.0267 61.2393 15.3486C60.6432 16.1364 60.3547 16.5822 60.2314 16.8857L60.2305 16.8887C58.822 20.3525 58.8888 23.1084 59.6885 25.4863C60.5287 27.9846 62.2952 30.4054 64.8477 32.8779C67.4022 35.3524 70.4963 37.6488 73.7539 40.0156C76.9064 42.3061 80.3061 44.7253 83.0068 47.2363C101.453 64.3866 103.143 88.1158 93.918 105.981C84.6731 123.885 64.4382 135.942 39.6152 129.889C27.5581 126.947 16.9224 118.637 10.499 108.08C4.05297 97.4858 1.66497 84.2902 6.74902 71.6904C7.50628 69.8138 8.72272 67.9209 9.81934 66.2812C11.0015 64.5137 12.1014 62.9582 13.0547 61.3428C15.1134 57.8538 15.156 56.2247 14.5654 55.2217V55.2207C14.559 55.2042 14.5777 55.1547 14.1504 54.9854C14.0168 54.9324 13.8783 54.8823 13.6689 54.8076C13.4871 54.7427 13.2105 54.6441 12.9355 54.5312C12.4498 54.3319 11.4159 53.8798 10.5752 52.8984V52.8975C9.79968 51.9926 9.20607 50.826 9.11426 49.4473C9.02342 48.0824 9.45189 46.9274 9.97656 46.0781C10.9364 44.5245 12.441 43.595 13.4443 43.1152C20.847 39.5701 30.06 43.1632 33.5439 50.252C33.9439 51.0657 34.2254 51.8768 34.4355 52.5127C34.6725 53.2298 34.804 53.6685 34.9854 54.1455C35.3145 55.0112 35.5184 55.1607 35.6143 55.2236C35.6937 55.2741 36.109 55.4417 36.832 55.082C37.574 54.7128 37.7667 54.2134 37.7822 54.0791C37.9577 52.46 37.616 50.9851 36.8926 49.2188C36.5165 48.3005 36.0787 47.3966 35.5635 46.3145C35.0692 45.2761 34.515 44.095 34.0381 42.8311V42.8301C31.3022 35.575 31.2056 28.3921 33.7256 22.0537C36.2419 15.7246 41.2209 10.603 47.9775 7.1875V7.18848C48.9836 6.67949 50.4271 6.01396 51.8945 5.43262C53.2714 4.88716 55.0147 4.27467 56.4863 4.06738V4.06641Z" fill="white" stroke="white" stroke-width="8"/>
<path d="M57.0449 8.02722C55.116 8.29861 51.5896 9.8428 49.782 10.7574C37.7454 16.8419 32.9151 28.517 37.7804 41.4188C39.4291 45.7881 42.309 49.441 41.7594 54.5106C41.3661 58.1254 36.5439 60.6168 33.4189 58.5678C31.1533 57.0806 31.0455 54.2364 29.9545 52.0165C27.3845 46.7868 20.4879 44.1761 15.1701 46.7244C13.7908 47.3839 12.2929 48.7571 13.613 50.2959C14.4104 51.2268 16.7137 50.9879 18.0122 53.1916C21.7137 59.4769 12.794 67.3988 10.4584 73.1875C1.41206 95.6068 18.6911 120.667 40.5633 126.002C86.3389 137.164 114.348 81.8366 80.2829 50.1656C70.3584 40.9384 49.5449 32.5471 56.5249 15.3818C57.22 13.6694 58.9414 12.0492 59.3886 10.9419C60.1052 9.16976 58.8606 7.77211 57.0422 8.02722H57.0449Z" fill="white"/>
<path d="M57.0448 8.02733C58.8606 7.76951 60.1052 9.16716 59.3913 10.942C58.9441 12.0493 57.2226 13.6695 56.5276 15.3819C49.5503 32.5472 70.361 40.9386 80.2856 50.1657C114.353 81.8367 86.3416 137.165 40.5659 126.002C18.691 120.667 1.41472 95.607 10.4583 73.1876C12.794 67.4016 21.7136 59.4771 18.0122 53.1917C16.7137 50.9881 14.413 51.2269 13.6129 50.296C12.2929 48.7572 13.7934 47.384 15.17 46.7245C20.4852 44.1762 27.3844 46.787 29.9545 52.0166C31.0455 54.2366 31.1533 57.0807 33.4189 58.5679C36.5439 60.6169 41.366 58.1256 41.7593 54.5107C42.3116 49.4411 39.4291 45.7883 37.7804 41.4189C32.9151 28.5171 37.7454 16.842 49.7819 10.7575C51.5896 9.84291 55.1187 8.30143 57.0448 8.02733ZM20.4744 49.7641C23.7907 54.1144 23.2923 59.4228 20.7896 64.0554C17.1797 70.7397 13.4971 72.8158 12.4249 81.4107C9.10595 108.018 34.9437 127.481 59.8142 122.637C87.9418 117.161 100.086 85.0934 84.6498 61.233C76.5841 48.7654 55.8514 41.039 52.1903 27.9852C50.7625 22.8913 51.1747 18.6332 52.7965 13.6668C43.5912 17.686 38.3299 25.6214 40.2642 35.9287C41.49 42.4665 46.5007 47.5686 45.7949 54.7793C44.9948 62.9373 33.6937 66.6607 28.7637 59.4581C26.6921 56.4294 27.1824 52.6842 23.4512 50.6977C23.0472 50.4833 20.6415 49.6311 20.4744 49.7641Z" fill="black"/>
<path d="M51.9863 14.5898C50.6257 19.1815 50.3537 23.2873 51.709 28.1201C52.6539 31.4893 54.6925 34.489 57.3076 37.2764C59.9219 40.0629 63.1365 42.6633 66.4629 45.2256C73.1524 50.3786 80.256 55.3629 84.2295 61.5049C99.4901 85.0936 87.4666 116.743 59.7188 122.146C35.1146 126.936 9.6522 107.677 12.9209 81.4727C13.4471 77.2545 14.6088 74.6548 16.0811 72.2803C16.8259 71.0789 17.644 69.9429 18.5225 68.6611C19.3965 67.3858 20.315 65.9863 21.2295 64.293C23.5921 59.9196 24.2465 54.87 21.6055 50.5371C21.6422 50.5491 21.6796 50.5609 21.7168 50.5732C22.3968 50.7988 23.0574 51.0541 23.2148 51.1387L23.2158 51.1396C24.931 52.0529 25.6812 53.3584 26.2627 54.8672C26.4095 55.248 26.5434 55.6391 26.6816 56.042C26.8189 56.4421 26.9604 56.8546 27.1152 57.2666C27.4258 58.0926 27.8008 58.9371 28.3516 59.7412V59.7402C30.9598 63.5509 35.2579 64.459 38.9697 63.3584C42.6712 62.2607 45.8697 59.1437 46.293 54.8281C46.6588 51.0917 45.5381 47.9158 44.2119 44.9023C42.873 41.8601 41.3548 39.0327 40.7559 35.8369C39.8106 30.7914 40.6273 26.354 42.7852 22.6914C44.7824 19.3016 47.9457 16.5466 51.9863 14.5898Z" fill="#FFD903" stroke="black"/>
<path d="M51.8053 74.1196H52.3927C59.8315 62.9 76.7622 67.4772 80.056 79.9257C83.8923 94.4212 69.9228 107.766 58.3989 113.832C57.1131 114.508 53.4896 116.32 52.2219 116.377C50.2767 116.465 43.9319 112.769 42.0497 111.568C31.7606 104.998 20.6714 93.3343 24.139 79.9257C27.3549 67.4953 44.4204 62.897 51.8023 74.1196H51.8053ZM39.1485 72.0876C34.1284 72.5466 29.6357 76.2512 28.3769 81.1696C24.9093 94.7111 41.0157 107.093 51.7993 111.737C53.5316 112.105 62.1872 106.305 63.9316 104.907C70.7949 99.406 78.1798 90.9551 75.869 81.4262C73.6032 72.0846 61.1113 68.4132 55.5696 76.8551C54.6076 78.3224 54.158 81.393 52.0001 81.2753C49.98 81.1636 49.6054 78.3043 48.6373 76.8551C46.7012 73.9536 42.6431 71.7646 39.1515 72.0846L39.1485 72.0876Z" fill="black" stroke="black"/>
<path d="M39.1481 72.0877C42.6397 71.7677 46.6978 73.9567 48.6339 76.8582C49.602 78.3074 49.9766 81.1667 51.9967 81.2784C54.1546 81.3962 54.6041 78.3256 55.5662 76.8582C61.1079 68.4133 73.5998 72.0847 75.8656 81.4294C78.1764 90.9582 70.7915 99.4091 63.9281 104.91C62.1838 106.308 53.5282 112.105 51.7959 111.74C41.0123 107.096 24.9058 94.7112 28.3735 81.1727C29.6323 76.2543 34.1249 72.5497 39.1451 72.0908L39.1481 72.0877Z" fill="#FF1E1E" stroke="black"/>
<path d="M65.1567 78.4791C67.7949 79.4768 70.6757 81.9593 70.0347 86.6081" stroke="#FF7C7C" stroke-width="3" stroke-linecap="round"/>
</svg>
