<svg width="154" height="150" viewBox="0 0 154 150" fill="none" xmlns="http://www.w3.org/2000/svg">
<g filter="url(#filter0_d_2858_3329)">
<path d="M123.902 67.676C124.219 70.4566 123.916 73.3772 123.431 76.125C122.055 83.9002 117.358 90.5191 112.104 96.1575C99.6118 109.565 85.8586 121.92 73.2827 135.268C70.1886 137.814 65.3695 137.501 62.2014 135.255C51.3973 124.705 40.7809 113.932 30.129 103.216C22.203 95.2439 14.1731 88.0411 11.7771 76.389C5.64846 46.6015 37.9299 26.5832 61.89 44.9228C63.8352 46.4116 65.5302 48.0903 67.2465 49.8303C67.4541 50.0401 67.366 50.3613 67.7328 50.26C68.7666 48.7155 70.2824 47.2709 71.7157 46.0476C73.506 44.5189 75.5081 43.2984 77.3794 41.8838L77.4008 21.6358C77.8046 15.6962 82.554 11.2898 88.4181 11H130.379C136.281 11.0571 141.352 15.3636 141.826 21.3474V57.4742C141.883 61.9549 136.687 67.6746 132.22 67.6746H123.902V67.676ZM98.5909 72.2438L110.139 63.0669C110.527 62.9527 110.906 62.8527 111.313 62.8185C117.667 62.2689 124.855 63.3595 131.224 62.8213C134.245 62.5658 136.675 60.2463 136.99 57.1901C136.84 44.9913 137.265 32.7326 136.775 20.568C135.026 14.767 128.19 16.0131 123.4 15.9974C120.586 15.9889 117.655 16.1387 114.858 16.1316C106.494 16.1088 97.2841 15.4893 88.9883 15.9974C85.405 16.2172 82.7104 18.0358 82.2354 21.7799V57.1901C83.609 65.1951 91.3886 61.9749 96.6399 62.857C96.9954 62.917 97.6254 63.2082 97.8884 63.4594C98.0235 63.5879 98.5923 64.5271 98.5923 64.6085V72.2452L98.5909 72.2438ZM119.352 67.676H111.602C107.053 71.0091 102.838 75.15 98.2923 78.4388C97.6367 78.9127 97.412 79.2111 96.5347 79.2467C95.3445 79.2953 94.4757 78.8713 94.0747 77.708L93.9894 67.8858L93.8287 67.6774H87.1455C82.6393 67.6774 77.405 61.9278 77.405 57.4713V47.5507C75.4811 49.0566 73.4719 50.624 71.8551 52.4711C70.2383 54.3181 69.2074 57.5399 66.2597 56.0967C65.3169 55.6357 64.2305 53.4974 63.4001 52.5439C49.4933 36.5852 23.2808 40.2494 16.9005 61.254C11.1657 80.136 25.2758 91.6368 36.953 103.359C44.8932 111.33 52.8591 119.289 60.7709 127.268C63.2863 129.805 66.3692 134.657 70.4388 131.556C80.6101 121.356 90.7928 111.14 100.863 100.861C108.464 93.1028 117.783 84.9322 119.192 73.44C119.427 71.5272 119.343 69.603 119.353 67.6774L119.352 67.676Z" fill="black"/>
<path d="M130.432 5.5C138.931 5.58224 146.59 11.8446 147.308 20.9131L147.326 21.1299V57.4043L147.324 57.7939C147.238 61.8128 145.066 65.5068 142.748 68C140.38 70.5468 136.609 73.1748 132.22 73.1748H129.382C129.256 74.5467 129.062 75.8615 128.847 77.0811V77.084C127.195 86.4171 121.641 93.9905 116.127 99.9072L116.126 99.9062C109.782 106.716 103.133 113.242 96.5718 119.665C89.9811 126.117 83.4828 132.461 77.2856 139.039L77.0474 139.293L76.7778 139.515C71.3806 143.956 63.7732 143.112 59.02 139.741L58.6675 139.491L58.3589 139.189C47.5167 128.602 36.8567 117.786 26.228 107.094V107.093C18.8122 99.6338 9.48218 91.3553 6.52588 78.1299L6.39014 77.4971C-0.771245 42.6889 37.2595 19.1442 65.2329 40.5557L65.6558 40.8848C66.2952 41.3896 66.9057 41.9085 67.4927 42.4307C67.7171 42.2321 67.9354 42.0432 68.145 41.8643C69.246 40.9242 70.3692 40.1149 71.356 39.4219C71.5377 39.2942 71.7128 39.172 71.8823 39.0537L71.9009 21.6299V21.4463L71.9136 21.2627C72.516 12.4025 79.6384 5.92727 88.147 5.50684L88.2827 5.5H130.432ZM59.2524 56.1553C47.7582 42.9675 27.1031 46.5893 22.1626 62.8516C19.8522 70.4585 21.4459 76.4024 25.0356 82.0352C28.8881 88.0802 34.6738 93.2784 40.8491 99.4775C48.7765 107.435 56.7593 115.411 64.6763 123.396L65.2788 124.025C65.4722 124.234 65.6568 124.437 65.8267 124.625C66.1937 125.032 66.4867 125.362 66.8071 125.708C67.1358 126.063 67.4119 126.344 67.647 126.565C77.4518 116.732 87.2467 106.9 96.9341 97.0117C100.952 92.9103 104.806 89.2963 108.006 85.1768C111.027 81.2888 113.065 77.4169 113.679 73.1758H113.451C111.844 74.4289 110.233 75.798 108.509 77.2637C107.109 78.4543 105.631 79.7087 104.092 80.9316V85.5488L101.475 82.9248C101.394 82.9845 101.392 82.99 101.164 83.1611C100.986 83.2939 100.632 83.5558 100.177 83.8096C99.1941 84.3583 98.1931 84.6255 97.189 84.7148L96.7583 84.7422C95.5045 84.7933 93.8351 84.6249 92.2153 83.6699C90.4946 82.6554 89.4289 81.1083 88.8745 79.5L88.5825 78.6523L88.5747 77.7559L88.5347 73.1777H87.145C82.7446 73.1776 78.9592 70.5505 76.5747 68.0098C74.7524 66.068 73.0134 63.3983 72.2759 60.4189C71.5307 60.9623 70.5871 61.4721 69.4263 61.749C67.386 62.2357 65.4569 61.8271 63.8413 61.0361V61.0352C62.6223 60.4383 61.8004 59.5648 61.4087 59.1211C60.9455 58.5965 60.5504 58.0459 60.2681 57.6387C60.0441 57.3156 59.6386 56.7075 59.5229 56.5381C59.2992 56.2105 59.2305 56.1311 59.2524 56.1562V56.1553ZM114.843 21.6318C106.487 21.609 98.4909 21.0651 90.8481 21.4062L89.3247 21.4873C88.3309 21.5483 87.9553 21.8032 87.894 21.8525C87.87 21.8719 87.8559 21.8859 87.8345 21.9258C87.8168 21.9588 87.7748 22.0491 87.7358 22.2217V56.6426C87.7898 56.8628 87.8436 57.0061 87.8833 57.0938C87.9961 57.1301 88.2131 57.1864 88.5864 57.2275C89.4842 57.3266 90.53 57.2867 92.1724 57.2285C93.4975 57.1816 95.3539 57.1147 97.1851 57.376L97.5513 57.4326L97.5542 57.4336C98.4375 57.5826 99.2022 57.9016 99.6616 58.1201C100.088 58.3229 100.928 58.7568 101.687 59.4814H101.686C102.065 59.8429 102.323 60.1966 102.364 60.251C102.465 60.3868 102.554 60.5145 102.618 60.6094C102.749 60.8042 102.878 61.0099 102.988 61.1895C103.056 61.3012 103.129 61.4258 103.202 61.5527L106.716 58.7607L107.557 58.0928L108.586 57.79C109.036 57.6578 109.859 57.4216 110.848 57.3379C114.432 57.0287 118.172 57.1867 121.484 57.3203C124.946 57.46 127.98 57.5757 130.76 57.3408L130.919 57.3145C131.212 57.2403 131.408 57.0368 131.485 56.7852C131.351 44.704 131.737 33.4334 131.316 21.8154C131.194 21.7522 130.906 21.6339 130.335 21.54C129.571 21.4144 128.61 21.3791 127.363 21.4014C126.393 21.4187 124.582 21.5 123.383 21.4961V21.4971C122.066 21.4931 120.705 21.5267 119.258 21.5625C117.839 21.5976 116.331 21.6356 114.844 21.6318H114.843Z" stroke="white" stroke-width="11"/>
</g>
<path d="M148.657 144.511H3.0481H148.657ZM122.209 64.2898H130.527C134.994 64.2898 140.188 58.5701 140.131 54.0894V17.9626C139.658 11.9788 134.588 7.67229 128.686 7.61377H86.725C80.8608 7.90354 76.1114 12.31 75.7048 18.2495L75.6834 38.4976C73.8121 39.9136 71.81 41.134 70.0198 42.6614C68.5878 43.8847 67.0706 45.3293 66.0368 46.8737C65.67 46.9751 65.7581 46.6539 65.5505 46.4441C63.8356 44.7055 62.1392 43.0254 60.194 41.5366C36.2367 23.197 3.95531 43.2152 10.0826 73.0014C12.4786 84.6535 20.5084 91.8563 28.4344 99.8284C39.0878 110.543 49.7027 121.316 60.5068 131.867C63.6749 134.115 68.494 134.426 71.5882 131.88C84.1655 118.533 97.9173 106.179 110.409 92.7698C115.663 87.1315 120.36 80.5125 121.737 72.7373C122.223 69.9909 122.526 67.0704 122.207 64.2884L122.209 64.2898Z" fill="white"/>
<path d="M122.209 64.2898C122.526 67.0704 122.223 69.9909 121.738 72.7387C120.362 80.5139 115.665 87.1329 110.411 92.7713C97.9187 106.179 84.1655 118.533 71.5896 131.881C68.4954 134.428 63.6764 134.115 60.5083 131.868C49.7042 121.318 39.0878 110.546 28.4359 99.8299C20.5098 91.8577 12.48 84.6549 10.084 73.0028C3.95534 43.2152 36.2368 23.197 60.1969 41.5366C62.1421 43.0254 63.8371 44.7041 65.5534 46.4441C65.761 46.6539 65.6728 46.9751 66.0397 46.8737C67.0735 45.3293 68.5893 43.8847 70.0226 42.6614C71.8129 41.1326 73.815 39.9122 75.6863 38.4976L75.7076 18.2495C76.1115 12.31 80.8608 7.90354 86.725 7.61377H128.686C134.588 7.67087 139.659 11.9774 140.133 17.9612V54.088C140.189 58.5687 134.994 64.2884 130.527 64.2884H122.209V64.2898ZM96.8977 68.8576L108.446 59.6806C108.834 59.5664 109.213 59.4665 109.62 59.4322C115.973 58.8827 123.161 59.9732 129.53 59.4351C132.552 59.1796 134.982 56.86 135.296 53.8039C135.147 41.6051 135.572 29.3464 135.082 17.1818C133.333 11.3808 126.497 12.6269 121.707 12.6112C118.893 12.6026 115.962 12.7525 113.165 12.7454C104.801 12.7225 95.591 12.103 87.2952 12.6112C83.7119 12.831 81.0173 14.6496 80.5423 18.3937V53.8039C81.9159 61.8089 89.6955 58.5886 94.9468 59.4708C95.3023 59.5307 95.9322 59.8219 96.1953 60.0732C96.3304 60.2016 96.8992 61.1409 96.8992 61.2222V68.859L96.8977 68.8576ZM117.658 64.2898H109.909C105.36 67.6228 101.145 71.7638 96.5991 75.0526C95.9436 75.5265 95.7189 75.8248 94.8416 75.8605C93.6514 75.909 92.7826 75.4851 92.3816 74.3217L92.2963 64.4996L92.1356 64.2912H85.4524C80.9462 64.2912 75.7119 58.5415 75.7119 54.0851V44.1645C73.788 45.6704 71.7788 47.2377 70.162 49.0848C68.5452 50.9319 67.5143 54.1536 64.5666 52.7105C63.6238 52.2494 62.5374 50.1111 61.707 49.1576C47.8002 33.199 21.5877 36.8632 15.2073 57.8678C9.47256 76.7498 23.5827 88.2506 35.2599 99.9726C43.2001 107.943 51.166 115.903 59.0778 123.882C61.5932 126.419 64.676 131.27 68.7457 128.17C78.917 117.97 89.0997 107.754 99.17 97.4746C106.77 89.7166 116.09 81.546 117.499 70.0537C117.734 68.141 117.65 66.2168 117.66 64.2912L117.658 64.2898Z" fill="black"/>
<path d="M125.129 67.5857C125.446 70.3663 125.143 73.2868 124.658 76.0346C123.281 83.8098 118.585 90.4288 113.331 96.0671C100.839 109.475 87.0854 121.829 74.5096 135.177C71.4154 137.724 66.5963 137.411 63.4282 135.164C52.6241 124.614 42.0077 113.841 31.3558 103.126C23.4298 95.1536 15.3999 87.9508 13.0039 76.2987C6.87527 46.5111 39.1567 26.4929 63.1168 44.8325C65.062 46.3213 66.757 47.9999 68.4733 49.74C68.6809 49.9498 68.5928 50.271 68.9596 50.1696C69.9934 48.6252 71.5092 47.1806 72.9426 45.9573C74.7328 44.4285 76.7349 43.2081 78.6062 41.7935L78.6276 21.5454C79.0314 15.6059 83.7808 11.1994 89.6449 10.9097H131.606C137.508 10.9668 142.579 15.2733 143.052 21.2571V57.3839C143.109 61.8646 137.914 67.5843 133.447 67.5843H125.129V67.5857ZM99.8177 72.1535L111.365 62.9765C111.754 62.8623 112.133 62.7624 112.54 62.7281C118.893 62.1786 126.081 63.2691 132.45 62.731C135.472 62.4755 137.902 60.1559 138.216 57.0998C138.067 44.901 138.492 32.6423 138.002 20.4777C136.253 14.6766 129.417 15.9228 124.627 15.9071C121.813 15.8985 118.882 16.0484 116.085 16.0413C107.721 16.0184 98.5109 15.3989 90.2151 15.9071C86.6318 16.1269 83.9372 17.9455 83.4622 21.6896V57.0998C84.8359 65.1048 92.6154 61.8845 97.8667 62.7667C98.2222 62.8266 98.8521 63.1178 99.1152 63.3691C99.2503 63.4975 99.8191 64.4368 99.8191 64.5181V72.1549L99.8177 72.1535ZM120.578 67.5857H112.829C108.28 70.9187 104.065 75.0597 99.5191 78.3485C98.8635 78.8224 98.6389 79.1207 97.7615 79.1564C96.5713 79.2049 95.7025 78.781 95.3015 77.6176L95.2162 67.7955L95.0555 67.5871H88.3723C83.8661 67.5871 78.6318 61.8374 78.6318 57.381V47.4604C76.7079 48.9663 74.6987 50.5336 73.0819 52.3807C71.4651 54.2278 70.4342 57.4495 67.4865 56.0064C66.5437 55.5453 65.4573 53.407 64.6269 52.4535C50.7201 36.4949 24.5076 40.1591 18.1273 61.1637C12.3925 80.0457 26.5026 91.5465 38.1798 103.269C46.12 111.239 54.0859 119.199 61.9977 127.178C64.5131 129.714 67.596 134.566 71.6656 131.466C81.8369 121.266 92.0196 111.049 102.09 100.771C109.69 93.0125 119.01 84.8419 120.419 73.3496C120.654 71.4369 120.57 69.5127 120.58 67.5871L120.578 67.5857Z" fill="black"/>
<path d="M117.658 64.2898C117.648 66.2154 117.732 68.1396 117.498 70.0524C116.088 81.5446 106.769 89.7166 99.1685 97.4732C89.0982 107.752 78.9155 117.968 68.7442 128.169C64.6759 131.269 61.5917 126.417 59.0762 123.881C51.1644 115.901 43.1986 107.942 35.2583 99.9712C23.5812 88.2478 9.4696 76.7484 15.2058 57.8664C21.5862 36.8618 47.7986 33.199 61.7054 49.1562C62.5359 50.1098 63.6223 52.2481 64.565 52.7091C67.5127 54.1522 68.619 50.8449 70.1604 49.0834C71.7019 47.322 73.7864 45.669 75.7104 44.1631V54.0837C75.7104 58.5401 80.9446 64.2898 85.4508 64.2898H92.134L92.2947 64.4982L92.38 74.3204C92.7825 75.4837 93.6499 75.9077 94.84 75.8591C95.7174 75.8234 95.9435 75.5251 96.5976 75.0512C101.144 71.7624 105.358 67.6229 109.907 64.2884H117.657L117.658 64.2898Z" fill="#FF1E1E"/>
<path d="M96.8974 68.8574V61.2207C96.8974 61.1393 96.3286 60.2001 96.1935 60.0716C95.929 59.8204 95.3005 59.5292 94.945 59.4693C89.6951 58.5871 81.9141 61.8074 80.5405 53.8024V18.3922C81.0155 14.648 83.7101 12.8295 87.2934 12.6097C95.5892 12.1029 104.799 12.7224 113.163 12.7438C115.96 12.751 118.889 12.6011 121.705 12.6097C126.496 12.6254 133.331 11.3792 135.08 17.1803C135.571 29.3434 135.147 41.6036 135.295 53.8024C134.979 56.8571 132.55 59.1781 129.529 59.4336C123.16 59.9717 115.972 58.8797 109.618 59.4307C109.212 59.4664 108.832 59.5663 108.444 59.6791L96.896 68.856L96.8974 68.8574ZM116.378 29.6032C117.025 26.3529 117.841 22.8215 116.212 19.7068C114.575 16.5822 109.847 15.0834 108.01 18.8461C107.292 20.3163 106.877 22.2862 106.207 23.8878C104.892 27.0367 102.972 30.6466 99.9788 32.4295C99.6432 32.3167 99.3631 32.0684 99.0261 31.9613C97.8913 31.5959 92.0556 31.573 90.7232 31.7557C86.9891 32.2668 88.2134 38.2363 88.2319 40.8071C88.2547 43.9945 87.9035 47.7015 88.0954 50.7834C88.1907 52.3093 89.0809 53.9151 90.7246 54.1407C92.3499 54.3648 98.1288 54.5375 99.4583 53.9408C99.8792 53.7524 100.201 53.1871 100.526 53.1543C101.01 53.1044 103.505 53.8338 104.266 53.9665C108.579 54.7216 113.061 55.1142 117.452 54.8744C119.613 54.7573 122.329 54.4204 123.232 52.1123C123.618 51.1288 123.3 50.2623 123.517 49.5429C123.579 49.3359 124.269 48.6622 124.458 48.3467C124.853 47.6901 125.135 46.8622 125.2 46.0943C125.247 45.5304 125.015 44.0916 125.075 43.8346C125.105 43.7076 125.74 42.8883 125.887 42.5028C126.218 41.625 126.289 40.6186 126.174 39.6822C126.133 39.3468 125.768 38.5018 125.786 38.4033C125.802 38.3248 126.449 37.5011 126.578 37.2014C128.067 33.767 125.913 29.6032 121.995 29.6032H116.378Z" fill="white"/>
<path d="M116.378 29.6033H121.995C125.913 29.6033 128.067 33.7671 126.578 37.2015C126.449 37.5013 125.802 38.3249 125.786 38.4034C125.768 38.5019 126.133 39.3483 126.174 39.6824C126.29 40.6188 126.22 41.6251 125.887 42.503C125.741 42.8884 125.105 43.7077 125.075 43.8348C125.015 44.0917 125.247 45.532 125.2 46.0944C125.136 46.8623 124.853 47.6917 124.458 48.3468C124.269 48.6623 123.579 49.3361 123.517 49.543C123.301 50.2625 123.616 51.1289 123.232 52.1124C122.328 54.4206 119.612 54.756 117.452 54.8745C113.061 55.1129 108.579 54.7217 104.266 53.9666C103.505 53.8339 101.01 53.1045 100.526 53.1544C100.202 53.1873 99.8794 53.7525 99.4585 53.9409C98.1289 54.5376 92.3501 54.3649 90.7248 54.1408C89.081 53.9152 88.1908 52.3094 88.0956 50.7835C87.905 47.7017 88.2562 43.9932 88.2321 40.8072C88.2136 38.2364 86.9907 32.2655 90.7234 31.7559C92.0543 31.5746 97.8915 31.5974 99.0262 31.9614C99.3632 32.0699 99.6433 32.3168 99.9789 32.4296C102.971 30.6468 104.892 27.0354 106.207 23.8879C106.875 22.2863 107.292 20.315 108.01 18.8462C109.847 15.0821 114.575 16.5809 116.212 19.7069C117.842 22.8202 117.025 26.353 116.378 29.6033ZM120.552 41.9291C120.862 41.5908 121.96 41.1712 122.044 40.9285C122.359 40.0292 121.274 39.8522 120.9 39.1242C120.357 38.0665 120.705 36.926 121.645 36.2465C121.881 36.0767 122.193 36.0596 122.425 35.8868C123.157 35.3458 123.123 34.0098 122.143 33.8784C119.66 33.543 116.437 34.1925 113.904 33.8699C112.623 33.7057 111.807 32.688 111.821 31.3933C111.848 28.9938 114.214 22.9172 112.111 21.2514C111.967 21.1372 111.926 20.9788 111.683 21.0387C110.044 27.101 107.019 33.5102 101.387 36.7362L101.362 48.8807C101.513 49.1062 104.727 49.73 105.257 49.8271C109.082 50.5208 113.296 50.8548 117.155 50.5836C117.527 50.5579 119.454 50.3238 119.504 50.0826C118.854 49.0534 118.78 47.7502 119.71 46.868C120.256 46.3513 121.402 46.2757 121.045 45.2565C120.994 45.1094 120.428 44.7597 120.238 44.3543C119.868 43.5721 119.959 42.5715 120.549 41.9277L120.552 41.9291ZM97.1819 36.0267H92.205V50.0155H97.1819V36.0267Z" fill="black"/>
<path d="M120.552 41.9289C119.962 42.5727 119.871 43.5733 120.241 44.3556C120.433 44.7609 120.997 45.1107 121.049 45.2577C121.405 46.2769 120.259 46.3525 119.713 46.8693C118.782 47.7514 118.856 49.0547 119.507 50.0838C119.457 50.3251 117.531 50.5592 117.158 50.5849C113.299 50.8546 109.084 50.5206 105.26 49.8283C104.73 49.7327 101.516 49.1075 101.366 48.8819L101.39 36.7374C107.022 33.5114 110.045 27.1022 111.686 21.04C111.929 20.9786 111.971 21.1385 112.114 21.2526C114.216 22.9199 111.85 28.9964 111.824 31.3945C111.81 32.6878 112.625 33.707 113.907 33.8711C116.44 34.1937 119.664 33.5457 122.146 33.8797C123.126 34.0124 123.159 35.3485 122.428 35.8881C122.195 36.0594 121.885 36.0765 121.649 36.2478C120.709 36.9272 120.36 38.0677 120.904 39.1255C121.277 39.8535 122.362 40.0305 122.047 40.9297C121.961 41.1724 120.865 41.5921 120.555 41.9304L120.552 41.9289Z" fill="white"/>
<path d="M97.1821 36.0266H92.2052V50.0154H97.1821V36.0266Z" fill="white"/>
<path d="M25.0728 66.8733C24.8053 60.8956 28.3712 52.5635 38.604 49.942" stroke="#FF9A9A" stroke-width="9" stroke-linecap="round"/>
<defs>
<filter id="filter0_d_2858_3329" x="0" y="0" width="153.826" height="149.063" filterUnits="userSpaceOnUse" color-interpolation-filters="sRGB">
<feFlood flood-opacity="0" result="BackgroundImageFix"/>
<feColorMatrix in="SourceAlpha" type="matrix" values="0 0 0 0 0 0 0 0 0 0 0 0 0 0 0 0 0 0 127 0" result="hardAlpha"/>
<feOffset dx="1" dy="1"/>
<feComposite in2="hardAlpha" operator="out"/>
<feColorMatrix type="matrix" values="0 0 0 0 0 0 0 0 0 0 0 0 0 0 0 0 0 0 0.25 0"/>
<feBlend mode="normal" in2="BackgroundImageFix" result="effect1_dropShadow_2858_3329"/>
<feBlend mode="normal" in="SourceGraphic" in2="effect1_dropShadow_2858_3329" result="shape"/>
</filter>
</defs>
</svg>
