<svg width="129" height="137" viewBox="0 0 129 137" fill="none" xmlns="http://www.w3.org/2000/svg">
<path d="M69.8247 78.8555C69.414 78.766 69.0853 78.5326 68.8416 78.1615L68.8425 78.1617C68.5929 77.7918 68.5112 77.39 68.6004 76.9615L68.601 76.9586C68.668 76.6708 68.8022 76.4235 69.0024 76.2175L69.0017 76.2164C69.1479 76.0626 69.3145 75.9411 69.5008 75.8524L69.6937 75.7745C69.9579 75.6838 70.2294 75.6694 70.5061 75.7297C70.8838 75.812 71.1906 76.0017 71.4228 76.2973L71.5176 76.4309C71.7551 76.8032 71.8248 77.2096 71.7262 77.6428C71.6368 78.0699 71.4058 78.4036 71.0364 78.6389L70.8945 78.7209C70.5604 78.8931 70.2024 78.9378 69.8247 78.8555Z" fill="black" stroke="black" stroke-width="0.2" stroke-linejoin="round"/>
<path d="M64.9395 77.7906C64.5288 77.701 64.2 77.4677 63.9563 77.0965L63.9573 77.0967C63.7076 76.7269 63.626 76.325 63.7151 75.8965L63.7158 75.8937C63.7828 75.6058 63.9169 75.3585 64.1172 75.1526L64.1164 75.1514C64.2626 74.9976 64.4292 74.8762 64.6155 74.7875L64.8084 74.7096C65.0727 74.6189 65.3441 74.6044 65.6208 74.6647C65.9985 74.7471 66.3054 74.9367 66.5375 75.2324L66.6324 75.366C66.8698 75.7382 66.9396 76.1446 66.841 76.5779C66.7516 77.0049 66.5205 77.3386 66.1511 77.5739L66.0093 77.6559C65.6751 77.8281 65.3172 77.8729 64.9395 77.7906Z" fill="black" stroke="black" stroke-width="0.2" stroke-linejoin="round"/>
<path d="M60.0537 76.7261C59.643 76.6366 59.3143 76.4032 59.0706 76.0321L59.0715 76.0323C58.8219 75.6624 58.7402 75.2606 58.8294 74.8321L58.83 74.8292C58.897 74.5414 59.0312 74.2941 59.2314 74.0881L59.2307 74.087C59.3769 73.9332 59.5435 73.8117 59.7298 73.723L59.9227 73.6451C60.1869 73.5544 60.4584 73.54 60.7351 73.6003C61.1128 73.6826 61.4196 73.8723 61.6518 74.1679L61.7466 74.3015C61.9841 74.6738 62.0538 75.0802 61.9552 75.5134C61.8658 75.9405 61.6348 76.2742 61.2654 76.5095L61.1235 76.5915C60.7894 76.7637 60.4314 76.8084 60.0537 76.7261Z" fill="black" stroke="black" stroke-width="0.2" stroke-linejoin="round"/>
<path d="M99.036 35.822C114.954 39.292 125.046 55.0094 121.577 70.9279L115.358 99.4563C111.889 115.375 96.171 125.466 80.2526 121.997L68.7883 119.498C68.7702 119.509 68.7552 119.52 68.743 119.527C68.3578 119.767 67.9544 119.986 67.5984 120.17C66.8742 120.545 65.9892 120.959 65.0534 121.378C63.1618 122.224 60.7399 123.235 58.2687 124.24C53.3092 126.256 47.9189 128.341 45.6462 129.214C40.1406 131.33 34.9419 126.367 36.1081 121.015L37.906 112.767L29.7251 110.984C13.8065 107.514 3.71473 91.7963 7.18439 75.8777L13.4027 47.3493C16.8725 31.4307 32.5899 21.3389 48.5085 24.8086L99.036 35.822Z" fill="white" stroke="white" stroke-width="13"/>
<path d="M98.1841 39.7303C111.944 42.7298 120.668 56.316 117.668 70.076L111.45 98.6044C108.451 112.364 94.8644 121.088 81.1044 118.089L67.9132 115.213C67.8906 115.213 67.8533 115.212 67.8112 115.218C67.7312 115.23 67.6585 115.253 67.5674 115.36C67.2314 115.753 66.8084 116.02 66.6274 116.133C66.3695 116.293 66.0702 116.458 65.7599 116.618C65.1348 116.942 64.3293 117.32 63.4193 117.727C61.5915 118.545 59.2206 119.536 56.7623 120.535C51.8394 122.536 46.4776 124.609 44.2112 125.48C41.7973 126.408 39.5003 124.236 40.0163 121.867L42.5648 110.175C42.6208 109.918 42.4582 109.665 42.2015 109.609L30.5769 107.075C16.8168 104.076 8.09344 90.4897 11.0926 76.7296L17.3109 48.2012C20.3102 34.441 33.8965 25.7176 47.6566 28.7169L98.1841 39.7303Z" fill="white" stroke="black" stroke-width="5"/>
<path d="M95.0889 36.4217C108.849 39.4212 117.572 53.0074 114.573 66.7674L108.355 95.2958C105.356 109.056 91.7692 117.779 78.0092 114.78L64.818 111.905C64.7954 111.904 64.758 111.903 64.716 111.91C64.636 111.922 64.5633 111.945 64.4722 112.051C64.1362 112.444 63.7132 112.711 63.5322 112.824C63.2743 112.985 62.975 113.149 62.6647 113.31C62.0396 113.633 61.234 114.011 60.3241 114.419C58.4963 115.236 56.1253 116.227 53.6671 117.226C48.7441 119.228 43.3824 121.301 41.116 122.172C38.7021 123.099 36.4051 120.927 36.9211 118.559L39.4696 106.866C39.5256 106.61 39.363 106.356 39.1062 106.3L27.4817 103.767C13.7216 100.767 4.99823 87.1811 7.99741 73.421L14.2157 44.8926C17.215 31.1324 30.8012 22.409 44.5614 25.4083L95.0889 36.4217Z" fill="white" stroke="black" stroke-width="5"/>
<path d="M71.354 78.519C70.3514 78.3005 69.5489 77.7315 68.9491 76.8184C68.336 75.9104 68.137 74.9284 68.3553 73.8794L68.3559 73.8765C68.5204 73.1694 68.8484 72.5635 69.3386 72.0598C69.8177 71.5556 70.3842 71.1938 71.0374 70.9748C71.6831 70.753 72.3453 70.7152 73.0228 70.8628C74.0817 71.0936 74.9093 71.6677 75.5008 72.5813L75.5015 72.5825C76.0834 73.4948 76.2534 74.4855 76.0115 75.5482C75.7929 76.5957 75.2287 77.4104 74.3224 77.9876C73.4043 78.5724 72.413 78.7498 71.354 78.519Z" fill="black" stroke="black" stroke-width="0.2" stroke-linejoin="round"/>
<path d="M58.0303 75.6147C57.0277 75.3962 56.2252 74.8272 55.6253 73.9141C55.0123 73.0061 54.8133 72.0241 55.0316 70.9751L55.0322 70.9722C55.1967 70.2651 55.5247 69.6592 56.0149 69.1555C56.494 68.6513 57.0604 68.2895 57.7137 68.0705C58.3594 67.8487 59.0216 67.8109 59.6991 67.9585C60.758 68.1893 61.5856 68.7634 62.177 69.677L62.1778 69.6782C62.7596 70.5905 62.9296 71.5812 62.6877 72.6439C62.4692 73.6914 61.9049 74.5061 60.9986 75.0833C60.0806 75.6681 59.0892 75.8455 58.0303 75.6147Z" fill="black" stroke="black" stroke-width="0.2" stroke-linejoin="round"/>
<path d="M44.707 72.7109C43.7044 72.4923 42.9019 71.9234 42.3021 71.0103C41.6891 70.1023 41.49 69.1203 41.7083 68.0713L41.709 68.0684C41.8734 67.3613 42.2014 66.7554 42.6917 66.2517C43.1708 65.7475 43.7372 65.3857 44.3904 65.1667C45.0361 64.9449 45.6984 64.9071 46.3758 65.0547C47.4347 65.2855 48.2624 65.8596 48.8538 66.7732L48.8545 66.7744C49.4364 67.6867 49.6064 68.6774 49.3645 69.7401C49.146 70.7876 48.5817 71.6023 47.6754 72.1795C46.7573 72.7643 45.766 72.9417 44.707 72.7109Z" fill="black" stroke="black" stroke-width="0.2" stroke-linejoin="round"/>
<path d="M47.1534 6.97569C58.1651 3.91006 67.7439 9.20913 72.0207 17.2687C76.2747 25.2858 75.235 35.9055 65.8622 43.5305L65.4094 43.8915C59.2354 48.7145 49.9954 55.4289 43.2217 59.486C41.3427 60.6116 39.2308 61.4972 36.9727 61.4867C34.6024 61.4755 32.4333 60.4816 30.5171 58.5475L30.3426 58.3714L30.2064 58.1657C28.2121 55.1444 25.8609 52.1603 23.3834 49.1256L19.6169 44.543C16.6849 40.964 13.7627 37.2801 11.3829 33.4969C1.9927 18.5677 15.2943 0.327839 32.4176 2.7093C36.8356 3.32472 40.8737 5.35547 44.0879 8.1699C44.265 8.09295 44.4536 8.01399 44.6543 7.92524C45.3457 7.61938 46.2097 7.23844 47.1534 6.97569Z" fill="#FF1E1E" stroke="black" stroke-width="5"/>
<path d="M56.7858 18.3547C59.8254 19.5041 63.2738 22.9527 62.5353 28.3088" stroke="#FF7C7C" stroke-width="6" stroke-linecap="round"/>
</svg>
