<svg width="110" height="110" viewBox="0 0 110 110" fill="none" xmlns="http://www.w3.org/2000/svg">
<g filter="url(#filter0_d_2846_2845)">
<path d="M99.8957 64.4847C105.248 39.5744 89.3927 15.0421 64.4853 9.69069C39.5778 4.33926 15.0427 20.1936 9.69069 45.1039C4.33865 70.0142 20.1936 94.5464 45.1039 99.8985C70.0142 105.251 94.5464 89.3955 99.8985 64.4853L99.8957 64.4847Z" fill="white"/>
<path d="M64.905 7.73523C90.2374 13.178 106.595 37.637 102.231 62.9405L102.274 62.9497L101.854 64.9051C96.2701 90.8953 70.6736 107.438 44.6834 101.854C18.6934 96.2698 2.15135 70.6735 7.73539 44.6834C13.3196 18.6935 38.918 2.15205 64.905 7.73523Z" stroke="white" stroke-width="4"/>
</g>
<path d="M99.8957 64.4847C94.5436 89.3949 70.0113 105.25 45.1011 99.8979C20.1908 94.5458 4.33926 70.0113 9.69069 45.1039C15.0421 20.1964 39.575 4.33865 64.4853 9.69069C89.3955 15.0427 105.251 39.575 99.8985 64.4853L99.8957 64.4847ZM94.593 63.3454C99.3154 41.3654 85.3247 19.7215 63.3476 14.9996C41.3704 10.2778 19.7215 24.2644 14.999 46.2444C10.2766 68.2244 24.2672 89.8683 46.2444 94.5902C68.2216 99.312 89.8683 85.3219 94.5902 63.3448L94.593 63.3454Z" fill="black"/>
<path d="M94.5951 63.3418C89.8726 85.3218 68.2265 99.3091 46.2493 94.5872C24.2722 89.8654 10.2787 68.2209 15.0011 46.2409C19.7236 24.2609 41.3697 10.2736 63.3469 14.9955C85.324 19.7173 99.3141 41.3641 94.5923 63.3412L94.5951 63.3418ZM65.9384 38.6176C70.1859 38.5221 74.948 35.7841 78.8659 38.3886C79.8021 39.0112 82.2587 42.0239 83.0029 41.9627L86.5447 38.4702C84.2667 35.6551 81.2024 32.727 77.539 31.9429C73.8755 31.1587 69.1668 33.0446 65.3385 33.1918L65.9384 38.6176ZM31.69 36.3115C31.1846 36.8662 32.9975 40.7487 33.308 41.6083L39.0695 39.6244L48.0302 44.1524C49.034 43.7196 54.5866 42.1182 54.7452 41.38L52.8895 36.7367L48.2296 38.2852L39.681 33.6364L31.6893 36.3144L31.69 36.3115ZM71.2852 48.0169L65.9317 46.8667L63.5708 57.8553L68.9242 59.0055L71.2852 48.0169ZM46.6885 48.6275L41.3351 47.4773L40.1849 52.8307L45.5383 53.9809L46.6885 48.6275ZM72.5408 70.9836L31.9675 62.2663L30.8174 67.6197L71.3906 76.337L72.5408 70.9836Z" fill="white"/>
<path d="M72.5381 70.9839L31.9649 62.2666L30.8147 67.62L71.3879 76.3373L72.5381 70.9839Z" fill="black"/>
<path d="M31.6887 36.3148L39.6804 33.6369L48.229 38.2857L52.8889 36.7371L54.7446 41.3805C54.586 42.1187 49.0334 43.7201 48.0296 44.1529L39.0689 39.6249L33.3074 41.6088C32.9969 40.7491 31.1834 36.8695 31.6894 36.312L31.6887 36.3148Z" fill="black"/>
<path d="M65.9384 38.6214L65.3385 33.1956C69.1639 33.0477 73.7424 31.1368 77.5389 31.9466C81.3354 32.7564 84.2639 35.6582 86.5446 38.474L83.0028 41.9665C82.2593 42.0248 79.7999 39.0116 78.8659 38.3923C74.948 35.7878 70.1858 38.5259 65.9384 38.6214Z" fill="black"/>
<path d="M71.2856 48.0228L65.9322 46.8726L63.5712 57.8611L68.9246 59.0113L71.2856 48.0228Z" fill="black"/>
<path d="M46.686 48.6297L41.3325 47.4795L40.1823 52.8329L45.5358 53.9831L46.686 48.6297Z" fill="black"/>
<defs>
<filter id="filter0_d_2846_2845" x="4.6509" y="4.65137" width="101.285" height="101.287" filterUnits="userSpaceOnUse" color-interpolation-filters="sRGB">
<feFlood flood-opacity="0" result="BackgroundImageFix"/>
<feColorMatrix in="SourceAlpha" type="matrix" values="0 0 0 0 0 0 0 0 0 0 0 0 0 0 0 0 0 0 127 0" result="hardAlpha"/>
<feOffset dx="1" dy="1"/>
<feComposite in2="hardAlpha" operator="out"/>
<feColorMatrix type="matrix" values="0 0 0 0 0 0 0 0 0 0 0 0 0 0 0 0 0 0 0.17 0"/>
<feBlend mode="normal" in2="BackgroundImageFix" result="effect1_dropShadow_2846_2845"/>
<feBlend mode="normal" in="SourceGraphic" in2="effect1_dropShadow_2846_2845" result="shape"/>
</filter>
</defs>
</svg>
