<svg width="40" height="54" viewBox="0 0 40 54" fill="none" xmlns="http://www.w3.org/2000/svg">
<path d="M21.4691 3.30469C24.3266 5.57775 28.305 9.77082 31.6869 14.7871C35.0586 19.7883 37.9556 25.781 38.431 31.6445C39.0332 39.0727 35.4498 45.7149 29.7806 49.2246C24.0642 52.7635 16.3573 53.0435 8.93201 48.041C2.06364 43.4137 0.793713 36.5142 1.80603 30.0977C2.80807 23.7467 6.05039 17.6532 8.53259 14.0254L10.0922 11.7451L11.1547 14.2959L11.8676 16.0078L19.2494 3.70703L20.1293 2.23926L21.4691 3.30469Z" fill="#FF6723" stroke="white" stroke-width="3"/>
<path d="M9.61637 34.1508C11.6711 27.2878 17.3703 21.818 21.161 18.9756C24.6025 22.0141 29.9156 26.4088 31.9299 34.1508C33.0655 38.5157 31.4996 48.8207 21.161 48.8207C10.3781 48.8207 8.17785 38.9555 9.61637 34.1508Z" fill="#FFB02E"/>
</svg>
