<svg width="90" height="100" viewBox="0 0 90 100" fill="none" xmlns="http://www.w3.org/2000/svg">
<path d="M87.5024 82.051V82.1233L87.4985 82.1956C87.313 85.4089 86.4734 88.3941 84.7222 90.8538C82.95 93.3427 80.3741 95.1089 77.062 96.0657L76.7651 96.1516L76.4565 96.1624C56.1103 96.879 35.4607 96.2771 15.2437 96.47L15.0747 96.4719L14.9077 96.4504C8.59836 95.6565 3.28166 90.8612 2.51709 84.2346L2.50049 84.0911V83.9456L2.56787 23.5911V23.4045L2.59619 23.2209C3.35873 18.1734 6.99539 13.5462 12.0972 12.0559L12.4146 11.967C14.0015 11.5428 15.5278 11.4294 16.936 11.4065C17.5393 11.3967 18.1408 11.4045 18.7163 11.4133V10.6516C18.7163 4.27779 26.0641 0.215478 31.4087 3.92798L31.6616 4.1106L31.6636 4.11157C32.5033 4.74253 33.2568 5.78635 33.7593 6.64868C34.0336 7.11952 34.2926 7.63814 34.4897 8.1604C34.6715 8.64198 34.8716 9.30771 34.8716 10.0178V11.425H54.9214V10.6516C54.9214 4.24956 62.2791 0.221527 67.6147 3.92798L67.8667 4.1106L67.8687 4.11157C68.7082 4.7424 69.464 5.81235 69.9575 6.66235C70.2304 7.13243 70.4893 7.64883 70.687 8.16431C70.8658 8.63044 71.0767 9.30264 71.0767 10.0178V11.4172C71.458 11.4116 71.8588 11.408 72.2964 11.4084C73.5913 11.4098 75.0111 11.4625 76.4634 11.7454C83.1695 13.052 87.046 18.8859 87.4839 25.052L87.4897 25.1399V25.2288L87.5024 82.051Z" fill="white" stroke="white" stroke-width="5"/>
<path d="M32.3716 13.9251V10.0178C32.3716 8.93221 31.0497 6.77792 30.1615 6.11051C26.5139 3.37328 21.216 6.15275 21.216 10.6514V13.9251C18.3408 13.9864 15.5919 13.6379 12.7988 14.4552C8.71971 15.6464 5.69929 19.4144 5.06784 23.5941L5.00049 83.9483C5.62141 89.3298 9.94892 93.3068 15.2194 93.97C35.5898 93.7757 56.0424 94.3797 76.3686 93.6637C82.0348 92.0269 84.67 87.8112 85.0026 82.0517L84.99 25.2289C84.6132 19.9234 81.3402 15.243 75.9855 14.1997C73.5461 13.7245 71.0497 13.9885 68.5766 13.9251V10.0178C68.5766 8.97868 67.2295 6.75891 66.3665 6.11051C62.721 3.37539 57.421 6.13374 57.421 10.6514V13.9251H32.3737H32.3716Z" fill="white"/>
<path d="M32.3712 13.9251H57.4186V10.6514C57.4186 6.13374 62.7185 3.37539 66.3641 6.11051C67.2292 6.75891 68.5742 8.97868 68.5742 10.0178V13.9251C71.0473 13.9885 73.5457 13.7245 75.9831 14.1997C81.3378 15.2409 84.6129 19.9234 84.9875 25.2289L85.0002 82.0517C84.6697 87.8133 82.0345 92.0269 76.3662 93.6637C56.042 94.3797 35.5895 93.7757 15.2169 93.97C9.94648 93.3068 5.61897 89.3298 4.99805 83.9483L5.06751 23.5941C5.69895 19.4144 8.71937 15.6464 12.7985 14.4552C15.5937 13.6379 18.3405 13.9864 21.2157 13.9251V10.6514C21.2157 6.15275 26.5135 3.37328 30.1612 6.11051C31.0494 6.77792 32.3712 8.9301 32.3712 10.0178V13.9251ZM25.6884 22.7409C26.5472 23.6617 28.4205 23.0154 28.3742 21.6384C27.9932 18.1492 28.8751 13.5978 28.3573 10.2417C28.0753 8.41265 25.4716 8.26692 25.2106 10.8626C24.9496 13.4584 24.9644 18.7448 25.2106 21.2138C25.2464 21.5687 25.4716 22.5127 25.6863 22.743L25.6884 22.7409ZM62.8322 8.89631C61.9755 9.00825 61.5504 9.66087 61.4367 10.4592C61.1105 12.7297 61.1904 19.0447 61.4072 21.4314C61.6135 23.7082 64.2803 23.649 64.5624 21.8306C64.3414 18.2232 64.8991 14.1934 64.5855 10.6388C64.4971 9.63342 63.9835 8.74424 62.8343 8.8942L62.8322 8.89631ZM57.4186 17.7268H32.3712V22.2677C32.3712 22.5993 31.5293 24.403 31.2851 24.7684C28.9467 28.2322 23.43 27.6725 21.805 23.7905C21.7103 23.5667 21.2157 21.9488 21.2157 21.8475V17.9401H14.796C12.3018 17.9401 8.79725 21.9488 8.79725 24.3819V31.2461H80.9926V24.1707C80.9926 21.8707 77.5112 17.9401 75.2043 17.9401H68.5742V22.0587C68.5742 25.1887 65.0654 27.343 62.1544 27.022C59.5908 26.739 57.4186 23.9384 57.4186 21.425V17.7289V17.7268ZM80.9926 35.0457H8.79725V83.5174C8.79725 86.3962 12.6322 90.2021 15.6295 89.9677L74.7855 89.9592C77.3239 89.8536 80.9926 86.4447 80.9926 83.9377V35.0436V35.0457Z" fill="black"/>
<path d="M80.9927 35.0457V83.9398C80.9927 86.4447 77.324 89.8557 74.7856 89.9613L15.6296 89.9697C12.6344 90.2042 8.79736 86.3961 8.79736 83.5195V35.0478H80.9927V35.0457ZM43.2617 40.5877C39.9613 41.1009 38.0649 44.4485 38.2691 47.6103C38.6627 53.7247 40.7464 60.5086 41.3568 66.6864C42.5524 70.1312 47.8565 69.8524 48.61 66.2281C49.2331 60.3038 51.0874 53.8852 51.5 48.0074C51.8641 42.8011 48.4038 39.7893 43.2638 40.5877H43.2617ZM50.5065 78.5097C50.5065 75.386 47.9828 72.8557 44.8719 72.8557C41.7609 72.8557 39.2373 75.3881 39.2373 78.5097C39.2373 81.6313 41.7609 84.1637 44.8719 84.1637C47.9828 84.1637 50.5065 81.6313 50.5065 78.5097Z" fill="white"/>
<path d="M57.4187 17.727V21.4231C57.4187 23.9364 59.5888 26.737 62.1546 27.02C65.0655 27.3411 68.5743 25.1846 68.5743 22.0567V17.9382H75.2044C77.5113 17.9382 80.9927 21.8687 80.9927 24.1687V31.2441H8.79736V24.3799C8.79736 21.9469 12.3019 17.9382 14.7961 17.9382H21.2158V21.8455C21.2158 21.9469 21.7104 23.5647 21.8052 23.7886C23.428 27.6726 28.9468 28.2323 31.2853 24.7665C31.5315 24.4032 32.3713 22.5995 32.3713 22.2658V17.7249H57.4187V17.727Z" fill="#FE7878"/>
<path d="M62.8327 8.89618C63.982 8.74412 64.4955 9.63329 64.5839 10.6407C64.8975 14.1953 64.3398 18.2251 64.5608 21.8325C64.2808 23.651 61.6119 23.708 61.4057 21.4334C61.1889 19.0467 61.1089 12.7317 61.4351 10.4612C61.5509 9.66286 61.9761 9.01024 62.8306 8.8983L62.8327 8.89618Z" fill="white"/>
<path d="M25.6887 22.741C25.474 22.5108 25.2467 21.5667 25.213 21.2119C24.9668 18.7429 24.9668 13.3297 25.213 10.8607C25.4719 8.26497 28.0777 8.41282 28.3597 10.2397C28.8775 13.5958 27.9956 18.1473 28.3766 21.6364C28.4208 23.0156 26.5475 23.6619 25.6908 22.7389L25.6887 22.741Z" fill="white"/>
<path d="M43.2617 40.5876C48.4016 39.7892 51.862 42.801 51.4978 48.0072C51.0874 53.8872 49.2309 60.3036 48.6079 66.228C47.8544 69.8523 42.5502 70.131 41.3547 66.6863C40.7464 60.5085 38.6605 53.7246 38.2669 47.6102C38.0627 44.4505 39.9592 41.1008 43.2596 40.5876H43.2617Z" fill="black"/>
<path d="M44.8719 84.1637C47.9838 84.1637 50.5065 81.6323 50.5065 78.5097C50.5065 75.3871 47.9838 72.8557 44.8719 72.8557C41.76 72.8557 39.2373 75.3871 39.2373 78.5097C39.2373 81.6323 41.76 84.1637 44.8719 84.1637Z" fill="black"/>
</svg>
