<svg width="106" height="103" viewBox="0 0 106 103" fill="none" xmlns="http://www.w3.org/2000/svg">
<path d="M73.0578 34.8879C83.2995 32.8812 91.5785 38.0283 90.9625 49.0984C90.7588 52.7271 86.5952 74.9687 85.2432 77.5493C83.4761 80.9239 79.3514 83.7483 75.6082 84.3819C61.2474 84.8239 45.8583 88.2012 31.6236 88.3617C25.4672 88.4285 18.7988 84.9634 17.5128 78.5339C16.3069 72.5133 14.9186 57.3049 15.0552 51.1854C15.1524 46.7934 18.5097 42.2868 22.3702 40.432C27.7016 37.8613 34.1242 39.1325 39.7825 37.6134L51.1205 18.813C62.3181 8.85655 77.4516 21.3434 73.0583 34.8933L73.0578 34.8879ZM50.3424 76.924L74.741 74.7314C76.0655 74.6124 76.7109 72.2304 77.0045 71.1663C78.3192 66.4271 81.0279 52.9584 81.1531 48.3369C81.4073 39.3153 67.5793 48.5136 63.0167 43.6379C59.4341 39.8036 65.0994 32.5278 63.7595 27.9029C63.2573 26.1645 59.4481 23.718 58.1641 25.6709L47.3258 43.4157L50.3371 76.9245L50.3424 76.924ZM37.9922 47.7675L26.9994 48.7554C25.9484 48.8499 24.9631 50.8787 24.8864 51.9503C24.5722 56.4536 26.0297 70.2668 26.8982 74.9989C27.2143 76.7108 28.0615 78.9209 30.2333 78.7257L40.6898 77.786L37.9917 47.7622L37.9922 47.7675Z" fill="black" stroke="white" stroke-width="4" stroke-linejoin="round"/>
<path d="M50.3438 76.9253L47.3325 43.4165L58.1708 25.6717C59.4548 23.7188 63.2635 26.1599 63.7661 27.9037C65.1061 32.5286 59.4408 39.8044 63.0233 43.6387C67.5865 48.5198 81.4145 39.3214 81.1598 48.3377C81.0292 52.9597 78.3259 66.4279 77.0112 71.1671C76.7176 72.2312 76.0721 74.6132 74.7476 74.7322L50.3491 76.9248L50.3438 76.9253Z" fill="white"/>
<path d="M37.8145 45.7746C38.9145 45.676 39.8867 46.4876 39.9855 47.5876L42.6836 77.6111C42.7825 78.7111 41.9706 79.683 40.8706 79.7821L30.4138 80.7218C28.4583 80.8975 27.0692 79.9158 26.2354 78.7313C25.4688 77.6422 25.1111 76.3301 24.933 75.3666L24.9328 75.3647C24.4825 72.9115 23.8943 68.2053 23.459 63.5802C23.0279 58.9998 22.7225 54.2572 22.893 51.8151L22.8927 51.8121C22.9591 50.8835 23.362 49.8081 23.859 48.9701C24.1185 48.5327 24.46 48.0631 24.8904 47.6704C25.3036 47.2934 25.9571 46.8461 26.8223 46.7683L37.7032 45.7905C37.74 45.7851 37.7771 45.778 37.8145 45.7746Z" fill="#8FB7FF" stroke="#8FB7FF" stroke-width="4" stroke-linejoin="round"/>
</svg>
