<svg width="142" height="185" viewBox="0 0 142 185" fill="none" xmlns="http://www.w3.org/2000/svg">
<g filter="url(#filter0_d_2997_1048)">
<path d="M86.8049 98.118C87.4611 98.2347 87.7135 97.547 88.2719 97.2252C99.4775 90.7138 110.674 99.6417 107.913 112.135C106.361 119.16 102.307 127.88 101.392 134.637C100.601 140.496 100.954 146.389 99.5249 152.329C96.6067 164.472 85.8427 173.728 73.3499 174.737C65.6902 175.356 48.8249 175.526 41.8372 173.204C25.3347 167.724 23.5712 154.903 20.142 140.322C19.877 139.199 19.0977 138.022 18.7949 136.622C17.8295 132.155 19.0757 127.337 22.4323 124.138C24.0097 122.637 27.7828 121.138 28.7544 120.034C28.9058 119.864 29.0983 119.769 29.0163 119.479L8.39053 59.3272C5.59858 48.109 18.7476 39.3861 27.9531 46.7051C31.3602 49.4119 32.1994 52.8379 33.7168 56.7151C39.1335 70.555 43.5155 85.865 49.4779 99.3168C50.2099 100.967 50.7241 100.541 50.8471 98.9256C51.1941 94.3607 51.0806 89.3036 51.1594 84.7261C51.3645 72.7854 50.5695 59.567 51.4497 47.7903C52.4371 34.5814 70.192 31.5749 75.1324 43.3768C76.3816 46.3581 76.1293 70.7884 75.7349 74.1703C75.4163 76.8866 72.17 76.8045 71.6968 74.7287C70.722 70.473 73.1764 48.6106 71.1921 44.481C68.561 38.9981 60.4659 38.5942 57.0052 43.5661C54.6517 46.948 55.6802 54.6014 55.5792 58.8603C55.2574 72.4794 54.9357 86.1962 54.9357 99.8594C54.3615 104.939 48.6199 106.175 46.0361 101.815L28.0509 53.2354C23.1516 43.0298 8.69022 49.5728 12.8198 59.9487L32.5401 117.681C40.7677 114.094 48.5662 104.718 58.3144 109.119L58.8791 108.85C60.9581 102.737 61.3461 94.8497 67.2676 91.0514C68.1477 90.4867 71.4287 89.2784 71.6053 88.7642C71.905 83.0099 71.3877 77.1989 71.6432 71.4509C71.6842 70.5203 72.0186 66.1068 72.2647 65.7629C73.1669 64.4916 75.0251 64.826 75.6844 66.1762C76.4668 67.7757 75.7665 68.4571 75.7444 69.8767C75.656 76.2335 75.8264 82.6061 75.7728 88.9629C80.8109 89.4235 85.5588 93.2124 86.8018 98.1243L86.8049 98.118Z" fill="white"/>
<path d="M78.8218 41.8311C72.1138 25.8094 48.7335 30.4621 47.4604 47.4922L47.3823 48.6104C46.6696 59.4936 47.2656 71.9245 47.186 82.5586C46.5089 80.671 45.8376 78.7659 45.1704 76.8477C42.6726 69.6664 40.1867 62.2698 37.4419 55.2568C36.1468 51.9475 34.9156 47.1284 30.4429 43.5742L29.8628 43.1318C17.6233 34.1745 0.879167 45.7061 4.50928 60.293L4.55029 60.4609L4.60693 60.625L24.3433 118.181C24.1971 118.262 24.043 118.349 23.8794 118.439C22.7803 119.049 20.9157 120.059 19.6743 121.241L19.6724 121.243C15.3463 125.366 13.7556 131.388 14.7778 136.932L14.8853 137.467C15.1296 138.597 15.5511 139.567 15.8159 140.175C16.1434 140.926 16.2184 141.114 16.2485 141.241L16.2495 141.24C17.8917 148.223 19.3108 155.734 22.5288 162.003C25.9254 168.62 31.3021 173.919 40.5767 176.999L40.5757 177C44.6932 178.368 51.2015 178.901 57.229 179.071C63.4094 179.245 69.686 179.046 73.6714 178.725H73.6724C87.8946 177.575 100.094 167.082 103.415 153.264V153.263C104.212 149.945 104.497 146.705 104.689 143.709C104.887 140.618 104.985 137.918 105.356 135.174L105.439 134.616C105.894 131.794 106.949 128.472 108.203 124.77C109.483 120.99 110.983 116.782 111.819 112.998L111.964 112.286C113.34 104.955 110.81 98.2798 105.776 94.3887C101.134 90.8005 94.8256 89.9419 88.6587 92.5664C86.5732 89.3737 83.3597 86.9524 79.7827 85.7529C79.78 83.62 79.762 81.4939 79.7456 79.3887C79.7328 77.754 79.7225 76.1302 79.7202 74.5137C79.8271 73.492 79.9174 71.3461 79.9771 68.6523C80.0475 68.1625 80.0897 67.5554 80.0103 66.8545C80.0511 64.3001 80.0682 61.4165 80.0503 58.5977C80.0282 55.1176 79.9537 51.6099 79.8032 48.7598C79.7282 47.3392 79.6321 46.033 79.5063 44.9541C79.4006 44.0469 79.2266 42.7972 78.8218 41.8311ZM18.6802 52.5264C19.7148 52.0645 20.8195 52.0014 21.7593 52.3145C22.6065 52.5967 23.592 53.2734 24.3755 54.8281L42.2847 103.204L42.4106 103.543L42.5952 103.854C43.1164 104.734 43.7393 105.498 44.436 106.138C43.9367 106.374 43.4484 106.622 42.9722 106.876C40.6892 108.096 38.4538 109.591 36.5015 110.849C35.9156 111.226 35.3499 111.584 34.8013 111.923L16.605 58.6553L16.5728 58.5615L16.5366 58.4697C15.3531 55.4959 16.7027 53.4092 18.6802 52.5264ZM64.1733 44.0957C65.7399 44.1884 66.984 44.9764 67.5767 46.1943C67.5719 46.1956 67.675 46.4917 67.7739 47.2861C67.8755 48.1015 67.9416 49.1636 67.9722 50.4463C68.0331 53.009 67.9474 56.154 67.8257 59.4082C67.7061 62.6051 67.5497 65.9463 67.4868 68.6963C67.4552 70.0803 67.4449 71.3797 67.478 72.4951C67.4941 73.038 67.5227 73.6078 67.5757 74.1621C67.5579 76.2132 67.6017 78.2394 67.6421 80.1885C67.6865 82.3323 67.7253 84.3905 67.686 86.4102C67.5721 86.4617 67.4557 86.5146 67.3364 86.5684C67.1001 86.6749 66.8499 86.7878 66.6128 86.8975C66.3775 87.0062 66.129 87.124 65.895 87.2422C65.6785 87.3516 65.3892 87.5041 65.1079 87.6846L64.7329 87.9326C61.9213 89.8529 60.1573 92.4177 58.9497 95.0195C58.9948 86.4174 59.152 77.7956 59.3423 69.1807L59.5776 58.9551C59.6062 57.7499 59.5551 56.3397 59.5112 55.0166C59.4655 53.639 59.4239 52.2732 59.4468 50.9541C59.4698 49.6273 59.5571 48.4691 59.7349 47.5205C59.9192 46.537 60.1538 46.0442 60.2886 45.8506C61.1176 44.6601 62.5837 44.0017 64.1733 44.0957Z" stroke="white" stroke-width="8"/>
</g>
<path d="M85.8052 96.1173C86.4613 96.234 86.7137 95.5463 87.2721 95.2245C98.4778 88.7131 109.674 97.641 106.914 110.134C105.361 117.159 101.308 125.879 100.393 132.637C99.6009 138.495 99.9542 144.388 98.5251 150.328C95.607 162.471 84.843 171.727 72.3502 172.737C64.6904 173.355 47.8252 173.525 40.8374 171.203C24.3349 165.724 22.5714 152.903 19.1422 138.321C18.8772 137.198 18.098 136.022 17.7951 134.621C16.8298 130.154 18.0759 125.337 21.4326 122.138C23.0099 120.636 26.783 119.137 27.7547 118.033C27.9061 117.863 28.0985 117.768 28.0165 117.478L7.39079 57.3265C4.59883 46.1082 17.7478 37.3854 26.9534 44.7044C30.3605 47.4111 31.1997 50.8372 32.7171 54.7144C38.1338 68.5543 42.5157 83.8642 48.4782 97.3161C49.2101 98.966 49.7243 98.5401 49.8474 96.9249C50.1944 92.36 50.0808 87.3029 50.1597 82.7254C50.3647 70.7847 49.5697 57.5663 50.4499 45.7896C51.4374 32.5807 69.1923 29.5742 74.1326 41.3761C75.3819 44.3573 75.1295 68.7877 74.7352 72.1696C74.4165 74.8858 71.1703 74.8038 70.6971 72.728C69.7223 68.4722 72.1767 46.6098 70.1923 42.4803C67.5613 36.9973 59.4662 36.5935 56.0054 41.5654C53.652 44.9473 54.6804 52.6007 54.5795 56.8596C54.2577 70.4786 53.9359 84.1955 53.9359 97.8587C53.3617 102.938 47.6201 104.174 45.0364 99.8146L27.0512 51.2347C22.1518 41.0291 7.69048 47.572 11.82 57.948L31.5404 115.68C39.7679 112.093 47.5665 102.717 57.3146 107.118L57.8793 106.85C59.9583 100.736 60.3464 92.849 66.2678 89.0506C67.148 88.4859 70.4289 87.2777 70.6056 86.7635C70.9053 81.0092 70.3879 75.1981 70.6434 69.4502C70.6845 68.5196 71.0189 64.1061 71.2649 63.7622C72.1672 62.4908 74.0253 62.8252 74.6847 64.1755C75.4671 65.7749 74.7667 66.4563 74.7446 67.876C74.6563 74.2328 74.8266 80.6054 74.773 86.9622C79.8111 87.4228 84.559 91.2116 85.802 96.1236L85.8052 96.1173Z" fill="white"/>
<path d="M7.39708 57.3265C4.60513 46.1082 17.7541 37.3854 26.9597 44.7044C30.3668 47.4111 31.206 50.8372 32.7234 54.7144C38.1401 68.5543 42.522 83.8642 48.4845 97.3161C49.2164 98.966 49.7306 98.5401 49.8537 96.9249C50.2007 92.36 50.0871 87.3029 50.166 82.7254C50.371 70.7847 49.576 57.5663 50.4562 45.7896C51.4437 32.5807 69.1986 29.5742 74.1389 41.3761C75.3882 44.3573 75.1358 68.7877 74.7415 72.1696C74.7383 72.2043 74.7257 72.2358 74.7225 72.2705C74.7257 77.1667 74.8172 82.0692 74.7762 86.9591C79.8143 87.4196 84.5622 91.2085 85.8052 96.1204C86.4613 96.2372 86.7137 95.5494 87.2721 95.2276C98.4778 88.7162 109.674 97.6442 106.914 110.14C105.361 117.166 101.308 125.885 100.393 132.643C99.6009 138.501 99.9542 144.394 98.5251 150.335C95.607 162.477 84.843 171.733 72.3502 172.743C64.6904 173.361 47.8252 173.532 40.8374 171.21C24.3349 165.73 22.5714 152.909 19.1422 138.328C18.8772 137.205 18.098 136.028 17.7951 134.627C16.8298 130.16 18.0759 125.343 21.4326 122.144C23.0099 120.642 26.783 119.144 27.7547 118.04C27.9061 117.869 28.0985 117.775 28.0165 117.484L7.39077 57.3328L7.39708 57.3265ZM75.4734 91.1454C64.0595 89.2084 64.1068 101.935 61.3243 109.361C61.1697 110.434 62.4758 111.434 63.0247 112.427C66.2552 118.298 64.7756 125.232 59.6239 129.4C62.3969 132.51 66.0785 133.529 70.0251 131.921C73.2808 130.596 74.3976 128.188 75.4734 125.065C77.6438 118.762 80.5809 109.247 81.9248 102.808C82.9564 97.8745 81.0163 92.0855 75.4734 91.1454ZM103.327 107.806C104.317 102.73 100.768 97.8114 95.6574 97.1457C91.1083 96.5526 87.4235 99.5213 85.8872 103.619C83.5716 109.806 80.2118 121.16 78.953 127.602C76.8741 138.23 89.9631 143.025 95.5218 134.078L103.323 107.809L103.327 107.806ZM43.5978 167.818C49.2953 169.38 65.4286 169.147 71.776 168.689C82.3539 167.926 91.7077 160.231 94.4082 149.994C95.2694 146.729 95.4366 143.3 95.894 139.968C90.1903 144.401 81.7955 143.688 77.3378 137.864C76.2999 136.507 75.8078 135.072 74.9213 133.668C70.3753 137.325 64.416 137.795 59.3968 134.668C58.6712 134.217 56.283 131.772 56.0054 131.763L37.118 142.867C32.7581 145.051 28.7169 145.325 24.2844 143.126C25.6852 154.474 32.1398 164.676 43.5978 167.818ZM24.1299 125.144C18.3693 130.936 22.8017 140.785 30.7485 140.624C34.0578 140.558 42.5694 134.911 45.8345 132.968C49.3647 130.867 57.9204 126.444 59.6839 123.157C62.6178 117.683 58.9236 110.746 52.7497 110.09C50.9073 109.894 49.4246 110.15 47.7305 110.891L24.1299 125.147V125.144ZM31.5435 115.677C39.7711 112.09 47.5696 102.714 57.3178 107.115L57.8825 106.847C59.9615 100.733 60.3495 92.8458 66.271 89.0475C67.1511 88.4828 70.4321 87.2745 70.6087 86.7603C70.8643 81.8389 70.5236 76.8765 70.5804 71.9456C69.9652 66.3018 72.082 46.3953 70.1986 42.474C67.5676 36.991 59.4725 36.5872 56.0117 41.5591C53.6583 44.941 54.6867 52.5944 54.5858 56.8533C54.264 70.4723 53.9422 84.1892 53.9422 97.8524C53.3681 102.932 47.6264 104.168 45.0427 99.8083L27.0575 51.2284C22.1581 41.0228 7.69678 47.5657 11.8263 57.9417L31.5467 115.674L31.5435 115.677Z" fill="black"/>
<path d="M10.3905 59.3272C7.59854 48.109 20.7475 39.3861 29.9531 46.7051C33.3602 49.4119 34.1994 52.8379 35.7168 56.7151C41.1335 70.555 45.5154 85.865 51.4779 99.3168C52.2098 100.967 52.724 100.541 52.8471 98.9256C53.1941 94.3607 53.0805 89.3036 53.1594 84.7261C53.3644 72.7854 52.5695 59.567 53.4496 47.7903C54.4371 34.5814 72.192 31.5749 77.1323 43.3768C78.3816 46.3581 78.1292 70.7884 77.7349 74.1703C77.7317 74.205 77.7191 74.2366 77.7159 74.2713C77.7191 79.1674 77.8106 84.0699 77.7696 88.9598C82.8077 89.4204 87.5556 93.2092 88.7986 98.1212C89.4548 98.2379 89.7071 97.5502 90.2655 97.2284C101.471 90.717 112.667 99.6449 109.907 112.141C108.355 119.166 104.301 127.886 103.386 134.644C102.594 140.502 102.948 146.395 101.519 152.335C98.6004 164.478 87.8364 173.734 75.3436 174.744C67.6838 175.362 50.8186 175.532 43.8308 173.21C27.3283 167.731 25.5648 154.91 22.1356 140.329C21.8706 139.205 21.0914 138.029 20.7885 136.628C19.8232 132.161 21.0693 127.344 24.426 124.145C26.0033 122.643 29.7764 121.145 30.7481 120.04C30.8995 119.87 31.0919 119.775 31.0099 119.485L10.3842 59.3336L10.3905 59.3272ZM78.4668 93.1461C67.0529 91.2091 67.1002 103.935 64.3177 111.362C64.1631 112.434 65.4692 113.434 66.0181 114.428C69.2486 120.299 67.769 127.233 62.6173 131.401C65.3903 134.511 69.0719 135.53 73.0185 133.921C76.2742 132.596 77.391 130.189 78.4668 127.066C80.6372 120.763 83.5743 111.248 84.9182 104.809C85.9498 99.8752 84.0097 94.0862 78.4668 93.1461ZM106.32 109.806C107.311 104.73 103.762 99.8121 98.6508 99.1465C94.1017 98.5534 90.417 101.522 88.8806 105.62C86.565 111.806 83.2052 123.16 81.9465 129.602C79.8675 140.231 92.9565 145.026 98.5152 136.079L106.317 109.81L106.32 109.806ZM46.5912 169.819C52.2887 171.381 68.4221 171.147 74.7694 170.69C85.3473 169.926 94.7011 162.232 97.4016 151.995C98.2628 148.73 98.43 145.3 98.8874 141.969C93.1837 146.401 84.7889 145.688 80.3312 139.865C79.2933 138.508 78.8012 137.073 77.9147 135.669C73.3687 139.325 67.4094 139.795 62.3902 136.669C61.6646 136.218 59.2764 133.773 58.9988 133.763L40.1114 144.868C35.7515 147.051 31.7103 147.326 27.2779 145.127C28.6786 156.475 35.1332 166.677 46.5912 169.819ZM27.1233 127.145C21.3627 132.937 25.7951 142.786 33.7419 142.625C37.0513 142.559 45.5628 136.912 48.8279 134.969C52.3581 132.868 60.9138 128.445 62.6773 125.157C65.6112 119.684 61.917 112.747 55.7431 112.09C53.9008 111.895 52.418 112.15 50.7239 112.892L27.1233 127.148V127.145ZM34.5369 117.677C42.7645 114.09 50.563 104.715 60.3112 109.115L60.8759 108.847C62.9549 102.733 63.3429 94.8465 69.2644 91.0482C70.1446 90.4835 73.4255 89.2753 73.6021 88.761C73.8577 83.8396 73.517 78.8772 73.5738 73.9463C72.9586 68.3025 75.0754 48.396 73.192 44.4747C70.561 38.9917 62.4659 38.5879 59.0051 43.5598C56.6517 46.9417 57.6801 54.5951 57.5792 58.854C57.2574 72.4731 56.9356 86.1899 56.9356 99.8531C56.3615 104.932 50.6198 106.169 48.0361 101.809L30.0509 53.2291C25.1516 43.0235 10.6902 49.5665 14.8198 59.9424L34.5401 117.674L34.5369 117.677Z" fill="black"/>
<path d="M24.2879 143.125C25.6886 154.473 32.1432 164.675 43.6012 167.818C49.2987 169.379 65.4321 169.146 71.7794 168.688C82.3573 167.925 91.7111 160.23 94.4116 149.993C95.2728 146.728 95.44 143.299 95.8975 139.967C90.1937 144.4 81.7989 143.687 77.3412 137.863C76.3033 136.507 75.8112 135.071 74.9247 133.667C70.3787 137.324 64.4194 137.794 59.4002 134.667C58.6746 134.213 56.2865 131.771 56.0089 131.762L37.1214 142.867C32.7615 145.05 28.7203 145.324 24.2879 143.125Z" fill="white"/>
<path d="M95.6609 97.148C91.1118 96.555 87.427 99.5236 85.8907 103.622C83.5751 109.808 80.2153 121.162 78.9565 127.604C76.8776 138.232 89.9666 143.028 95.5253 134.081L103.327 107.811C104.318 102.735 100.768 97.8169 95.6578 97.1512L95.6609 97.148Z" fill="white"/>
<path d="M52.7468 110.089C50.9044 109.893 49.4216 110.149 47.7275 110.89L24.1269 125.146C18.3663 130.938 22.7987 140.787 30.7456 140.627C34.0549 140.56 42.5664 134.913 45.8315 132.97C49.3617 130.869 57.9174 126.446 59.6809 123.159C62.6148 117.685 58.9206 110.748 52.7468 110.092V110.089Z" fill="white"/>
<path d="M75.4734 91.1446C64.0595 89.2076 64.1068 101.934 61.3243 109.36C61.1697 110.433 62.4758 111.433 63.0247 112.427C66.2552 118.298 64.7756 125.232 59.6239 129.399C62.3969 132.51 66.0785 133.529 70.0251 131.92C73.2808 130.595 74.3976 128.188 75.4734 125.064C77.6438 118.761 80.5809 109.247 81.9248 102.808C82.9564 97.8737 81.0163 92.0847 75.4734 91.1446Z" fill="white"/>
<path d="M31.6067 115.692C39.8343 112.105 47.6328 102.729 57.381 107.13L57.9457 106.862C60.0246 100.748 60.4127 92.8609 66.3341 89.0626C67.2143 88.4979 70.4952 87.2896 70.6719 86.7754C70.9274 81.854 70.5867 76.8916 70.6435 71.9607C70.0252 66.32 72.142 46.4136 70.2618 42.4922C67.6276 37.0093 59.5325 36.6055 56.0717 41.5773C53.7183 44.9592 54.7467 52.6126 54.6458 56.8716C54.324 70.4906 54.0022 84.2074 54.0022 97.8706C53.4281 102.95 47.6864 104.186 45.1027 99.8266L27.1175 51.2466C22.2182 41.041 7.7568 47.584 11.8864 57.9599L31.6067 115.692Z" fill="white"/>
<g filter="url(#filter1_d_2997_1048)">
<path d="M94.7852 4.19455L97.5935 11.0547L103.827 13.7325C104.236 13.9826 104.294 14.8265 104.095 15.2058C103.746 15.8706 98.5788 17.4606 97.6137 18.1253C96.4787 19.8341 96.0587 23.2684 94.917 24.7771C93.9474 26.0566 93.2883 24.5187 92.9242 23.7456C92.1109 22.018 91.6641 19.9529 90.8062 18.2191L84.555 15.5059C83.8378 14.9828 84.0858 14.0993 84.7784 13.6554C86.11 12.7989 89.6958 12.0508 90.6967 11.0485C91.6708 10.0503 92.7834 4.53422 93.8603 4.20288C94.0926 4.13203 94.5908 4.0841 94.7852 4.19455Z" fill="white"/>
<path d="M94.7817 2.65161C94.94 2.67185 95.2305 2.72304 95.5259 2.89087L95.9771 3.14673L96.1733 3.62622L98.7485 9.91724L104.418 12.3547L104.518 12.3967L104.61 12.4524C105.392 12.9309 105.612 13.7704 105.674 14.2112C105.742 14.6905 105.717 15.3433 105.423 15.9026C105.27 16.1952 105.059 16.3882 104.943 16.4866C104.808 16.6006 104.666 16.6959 104.541 16.7727C104.29 16.9265 103.994 17.0749 103.699 17.2112C103.103 17.4861 102.354 17.7835 101.627 18.0647C100.881 18.3538 100.158 18.6258 99.5464 18.8733C99.2434 18.9958 98.9867 19.1041 98.7847 19.1975C98.752 19.2126 98.722 19.2279 98.6938 19.2415C98.3517 19.8805 98.0591 20.8091 97.7007 21.969C97.5081 22.5922 97.2988 23.2662 97.0591 23.884C96.8229 24.4925 96.5223 25.1407 96.1128 25.6819V25.6829C95.7646 26.1424 95.2153 26.6618 94.4204 26.7542C93.5862 26.8509 92.9771 26.4256 92.6499 26.1086C92.323 25.7919 92.0907 25.4118 91.939 25.136C91.7819 24.8505 91.6457 24.5524 91.5669 24.385V24.384C91.1164 23.4269 90.7729 22.39 90.4604 21.4651C90.2027 20.702 89.9614 20.0047 89.6841 19.3674L83.9575 16.8821L83.8052 16.8157L83.6714 16.718C82.858 16.1248 82.5026 15.2074 82.6597 14.2961C82.8021 13.4699 83.3325 12.8017 83.9683 12.3938H83.9673C84.4396 12.09 85.0381 11.8377 85.5884 11.6272C86.1516 11.4117 86.7932 11.1932 87.3618 10.9924C87.9539 10.7834 88.4856 10.587 88.9204 10.3909C89.1356 10.2938 89.3067 10.2055 89.437 10.1272C89.5009 10.0888 89.5488 10.0564 89.5835 10.0305C89.5959 10.0213 89.6058 10.0126 89.6138 10.0061C89.628 9.98466 89.6686 9.92357 89.731 9.80103C89.8246 9.61703 89.9325 9.36963 90.0532 9.05981C90.2975 8.43268 90.546 7.6851 90.8228 6.88501C91.0878 6.11877 91.3812 5.296 91.6899 4.63599C91.8434 4.30788 92.0269 3.96131 92.2456 3.66333C92.4308 3.41103 92.8082 2.95686 93.4194 2.7688L93.4224 2.76782C93.6877 2.6869 94.0025 2.64297 94.2778 2.63208C94.4231 2.62634 94.5983 2.62816 94.7817 2.65161Z" stroke="white" stroke-width="3"/>
</g>
<path d="M93.5125 0.956787C93.5654 0.959506 93.6214 0.965678 93.6755 0.976318C93.721 0.98528 93.8013 1.00429 93.8826 1.05054L94.0378 1.13843L94.1023 1.30542L97.4285 9.93921L102.72 11.0369L102.806 11.0544L102.881 11.1003C103.026 11.1897 103.136 11.3302 103.208 11.4333C103.29 11.5512 103.372 11.6915 103.45 11.8406C103.606 12.1399 103.764 12.5084 103.899 12.8748C104.034 13.2405 104.153 13.6197 104.224 13.9412C104.26 14.1006 104.287 14.259 104.296 14.4011C104.303 14.5162 104.307 14.7214 104.213 14.9021C104.146 15.0285 104.048 15.1245 103.969 15.1912C103.885 15.2631 103.786 15.3316 103.682 15.3953C103.476 15.5226 103.213 15.6557 102.923 15.7898C102.341 16.0588 101.596 16.3549 100.845 16.6462C100.088 16.9403 99.3254 17.2291 98.6843 17.489C98.0959 17.7275 97.664 17.9237 97.4392 18.0583C96.9333 18.869 96.5664 20.074 96.1707 21.3582C95.9704 22.008 95.7639 22.6701 95.532 23.2693C95.3302 23.7907 95.1002 24.2886 94.821 24.7029L94.698 24.8757C94.4067 25.2611 94.0682 25.5259 93.6746 25.6033C93.2711 25.6825 92.9183 25.5443 92.6501 25.3533C92.2717 25.0835 91.9758 24.6492 91.7712 24.2781L91.5974 23.9363C91.1558 22.9954 90.8681 21.9143 90.5886 20.8904C90.3214 19.9113 90.0582 18.9809 89.6824 18.1707L83.406 15.4392L83.3552 15.4167L83.3103 15.3845C83.0631 15.2037 82.8016 14.9067 82.571 14.5837C82.3351 14.2531 82.1065 13.8596 81.9373 13.4597C81.7713 13.0677 81.6455 12.629 81.655 12.2195C81.6648 11.8019 81.8242 11.3635 82.2664 11.1072V11.1062C82.721 10.8129 83.4026 10.6888 84.0789 10.6199C84.7784 10.5486 85.5855 10.528 86.3523 10.5037C87.1321 10.4789 87.8706 10.4507 88.4753 10.3669C88.7766 10.3252 89.028 10.2712 89.2253 10.2048C89.4218 10.1388 89.5301 10.0708 89.5837 10.0193C89.6334 9.96829 89.707 9.85301 89.781 9.63452C89.8524 9.42372 89.9127 9.15637 89.9646 8.84155C90.0688 8.20952 90.1284 7.45154 90.1941 6.68237C90.2585 5.92933 90.3295 5.15772 90.4587 4.55151C90.5232 4.24938 90.6082 3.95713 90.7312 3.71753C90.8012 3.58121 90.8983 3.43403 91.033 3.31519C91.1142 2.24498 91.6541 1.60539 92.2615 1.26929C92.5759 1.0953 92.8951 1.00896 93.1541 0.974365C93.2837 0.957065 93.4061 0.951338 93.5125 0.956787Z" fill="black" stroke="black"/>
<path d="M92.8755 0.514648C92.9557 0.52495 93.0565 0.544342 93.1577 0.584961L93.2593 0.632812L93.4087 0.71875L93.4741 0.878906L96.2944 7.78809L102.54 10.4785L102.573 10.4922L102.603 10.5117C103.006 10.7592 103.161 11.2304 103.21 11.5801C103.261 11.9428 103.229 12.3751 103.062 12.6943C102.996 12.8209 102.897 12.9167 102.818 12.9834C102.733 13.0553 102.634 13.1239 102.531 13.1875C102.324 13.3148 102.062 13.448 101.772 13.582C101.19 13.8511 100.445 14.147 99.6938 14.4385C98.9363 14.7326 98.1738 15.0213 97.5327 15.2812C96.9457 15.5192 96.5148 15.7151 96.2896 15.8496C95.7832 16.6603 95.415 17.8656 95.019 19.1504C94.8188 19.8001 94.6132 20.4624 94.3813 21.0615C94.1795 21.5831 93.9487 22.0808 93.6694 22.4951L93.5464 22.668C93.2613 23.0452 92.9228 23.3196 92.5151 23.3672C92.094 23.4162 91.7613 23.2065 91.5366 22.9883C91.312 22.77 91.1318 22.4857 90.9917 22.2305C90.8498 21.9719 90.7281 21.7031 90.6382 21.5117C90.204 20.5868 89.8697 19.5756 89.5415 18.6016C89.23 17.6769 88.9209 16.7832 88.5327 15.9639L82.2554 13.2314L82.2036 13.209L82.1597 13.1768C81.6382 12.7954 81.4385 12.2429 81.5317 11.7002C81.6202 11.1857 81.9599 10.7294 82.4136 10.4375C82.8036 10.1859 83.3349 9.95609 83.895 9.74121C84.4593 9.52475 85.0954 9.30866 85.6997 9.09473C86.3119 8.87803 86.8966 8.66216 87.3892 8.43945C87.8914 8.21231 88.2442 7.99996 88.4351 7.80957C88.5071 7.73496 88.6077 7.5875 88.73 7.34668C88.8491 7.1121 88.9737 6.81997 89.104 6.48438C89.3657 5.81049 89.6337 5.00487 89.9126 4.19629C90.1877 3.39895 90.474 2.59703 90.7661 1.9707C90.9119 1.65826 91.0685 1.3703 91.2358 1.1416C91.392 0.928268 91.6117 0.690575 91.9097 0.598633H91.9106C92.0803 0.54676 92.3127 0.510546 92.5288 0.501953C92.6394 0.497568 92.76 0.499838 92.8755 0.514648Z" fill="#83F6AD" stroke="black"/>
<g filter="url(#filter2_d_2997_1048)">
<path d="M121.881 38.4687L126.689 50.2135L137.361 54.798C138.061 55.2261 138.16 56.671 137.82 57.3203C137.223 58.4584 128.376 61.1806 126.724 62.3187C124.781 65.2442 124.062 71.1237 122.107 73.7067C120.447 75.8973 119.319 73.2643 118.695 71.9407C117.303 68.9831 116.538 65.4475 115.069 62.4792L104.367 57.8341C103.139 56.9386 103.564 55.4259 104.749 54.666C107.029 53.1996 113.168 51.9188 114.882 50.2028C116.549 48.4939 118.454 39.0502 120.298 38.4829C120.696 38.3616 121.549 38.2796 121.881 38.4687Z" fill="white"/>
<path d="M121.055 36.8606C121.263 36.8524 121.501 36.8555 121.74 36.886C121.926 36.9099 122.209 36.9617 122.498 37.0999L122.622 37.1643L123.073 37.4202L123.27 37.9006L127.845 49.0764L137.953 53.4202L138.052 53.4622L138.144 53.5188C139.072 54.0865 139.375 55.12 139.466 55.7668C139.563 56.4524 139.513 57.3225 139.149 58.0168C138.98 58.339 138.741 58.5647 138.583 58.6975C138.408 58.8459 138.212 58.9777 138.025 59.093C137.648 59.324 137.185 59.5571 136.695 59.7834C135.708 60.2385 134.454 60.7361 133.209 61.218C131.944 61.7078 130.691 62.1811 129.633 62.6086C128.765 62.9598 128.151 63.2338 127.804 63.4192C127.065 64.6631 126.498 66.4968 125.853 68.5842C125.522 69.6561 125.173 70.7742 124.779 71.7913C124.387 72.7991 123.916 73.8018 123.303 74.6116V74.6125C122.782 75.2998 122.074 75.9223 121.134 76.0315C120.155 76.1451 119.414 75.6502 118.969 75.219C118.524 74.7879 118.187 74.2475 117.944 73.8059C117.695 73.3547 117.482 72.8853 117.338 72.5803V72.5793C116.598 71.0071 116.03 69.2943 115.49 67.6936C115.001 66.247 114.53 64.8814 113.955 63.6301L103.77 59.2102L103.617 59.1438L103.483 59.0461C102.414 58.2667 101.976 57.0991 102.175 55.9446C102.36 54.8745 103.057 53.9684 103.94 53.4026C104.649 52.9469 105.584 52.5477 106.517 52.1907C107.464 51.8283 108.537 51.4636 109.529 51.1135C110.544 50.7552 111.49 50.4069 112.28 50.051C113.094 49.6836 113.583 49.3747 113.811 49.1506C113.861 49.0972 113.991 48.925 114.181 48.551C114.364 48.1912 114.562 47.7314 114.775 47.1858C115.203 46.0868 115.639 44.7743 116.106 43.4241C116.561 42.1078 117.047 40.7505 117.549 39.678C117.799 39.1435 118.08 38.6211 118.395 38.1917C118.676 37.808 119.15 37.2667 119.857 37.0491L119.861 37.0481C120.209 36.942 120.653 36.8765 121.055 36.8606Z" stroke="white" stroke-width="3"/>
</g>
<path d="M119.685 33.2817C119.764 33.2858 119.841 33.294 119.913 33.3081C119.944 33.3143 119.984 33.3235 120.027 33.3374L120.162 33.396L120.316 33.4839L120.381 33.6509L126.146 48.6147L135.396 50.5317L135.482 50.5493L135.556 50.5952C135.74 50.7076 135.893 50.8961 136.011 51.0659C136.14 51.2504 136.272 51.4769 136.4 51.7241C136.658 52.2201 136.923 52.8364 137.151 53.4536C137.379 54.0702 137.576 54.7029 137.694 55.2329C137.753 55.4968 137.796 55.7484 137.809 55.9663C137.821 56.1569 137.82 56.4197 137.708 56.6353C137.626 56.7926 137.497 56.9225 137.376 57.0249C137.249 57.1323 137.096 57.2379 136.927 57.3413C136.591 57.5485 136.156 57.7693 135.665 57.9966C134.68 58.452 133.414 58.9565 132.129 59.4556C130.836 59.9573 129.524 60.4536 128.424 60.8999C127.376 61.3246 126.579 61.6824 126.176 61.937C125.251 63.3771 124.597 65.5303 123.914 67.7485C123.57 68.8629 123.221 69.985 122.829 70.9976C122.438 72.0069 121.994 72.9388 121.449 73.6616H121.448C120.979 74.2828 120.468 74.6637 119.912 74.7729C119.346 74.884 118.84 74.693 118.433 74.4028C117.651 73.8451 117.071 72.8072 116.747 72.1167C116.006 70.5395 115.522 68.7211 115.041 66.9595C114.572 65.241 114.103 63.5735 113.413 62.1245L102.543 57.394L102.492 57.3716L102.448 57.3394C102.069 57.0622 101.647 56.5882 101.261 56.0483C100.871 55.5009 100.493 54.8506 100.215 54.1929C99.9395 53.5429 99.7438 52.8454 99.7585 52.2163C99.7736 51.5763 100.014 50.9523 100.653 50.5952C101.353 50.1486 102.435 49.9413 103.589 49.8237C104.771 49.7032 106.138 49.6692 107.457 49.6274C108.789 49.5852 110.072 49.5355 111.129 49.3892C111.656 49.3161 112.111 49.2205 112.478 49.0972C112.848 48.9728 113.092 48.8314 113.236 48.688C113.375 48.5448 113.519 48.2892 113.652 47.896C113.783 47.5094 113.89 47.0311 113.98 46.4829C114.162 45.3835 114.266 44.0688 114.378 42.7583C114.488 41.464 114.607 40.1668 114.823 39.1548C114.931 38.6497 115.069 38.1844 115.259 37.8149C115.388 37.562 115.564 37.3159 115.803 37.145C115.892 35.3396 116.769 34.3058 117.734 33.772C118.228 33.4989 118.731 33.3634 119.137 33.3091C119.341 33.2819 119.528 33.2737 119.685 33.2817Z" fill="black" stroke="black"/>
<path d="M118.567 32.5227C118.69 32.5385 118.829 32.5661 118.962 32.6194L119.093 32.6819L119.243 32.7668L119.308 32.927L124.193 44.8918L135.017 49.5549L135.05 49.5686L135.081 49.5872C135.634 49.9268 135.876 50.6003 135.955 51.1633C136.035 51.7395 135.976 52.3967 135.736 52.8557C135.654 53.0129 135.526 53.1421 135.405 53.2444C135.278 53.3519 135.125 53.4582 134.957 53.5618C134.62 53.769 134.185 53.9897 133.694 54.217C132.709 54.6725 131.443 55.1769 130.158 55.676C128.865 56.1778 127.553 56.6741 126.453 57.1204C125.406 57.5446 124.609 57.9019 124.206 58.1565C123.281 59.5965 122.627 61.7502 121.943 63.969C121.599 65.0833 121.25 66.2055 120.858 67.218C120.516 68.1011 120.133 68.9245 119.677 69.6008L119.477 69.8821C119.014 70.4952 118.511 70.8757 117.954 70.9407C117.383 71.0071 116.915 70.7255 116.569 70.3889C116.222 70.0523 115.934 69.6029 115.7 69.176C115.464 68.7459 115.262 68.2998 115.105 67.9661C114.372 66.4047 113.806 64.6949 113.243 63.0217C112.695 61.3968 112.146 59.8039 111.444 58.3459L100.572 53.6145L100.521 53.592L100.476 53.5588C99.6913 52.9847 99.4059 52.1736 99.5425 51.3792C99.6578 50.7083 100.065 50.0885 100.64 49.6389L100.896 49.4563C101.531 49.0472 102.409 48.6648 103.365 48.2981C104.325 47.9296 105.406 47.5621 106.447 47.1936C107.495 46.8224 108.509 46.4489 109.368 46.0608C110.238 45.6672 110.894 45.2812 111.268 44.9055C111.429 44.7387 111.619 44.4482 111.833 44.0276C112.044 43.611 112.263 43.0986 112.488 42.5188C112.939 41.3567 113.401 39.9669 113.876 38.5891C114.348 37.2225 114.833 35.8669 115.325 34.8137C115.57 34.2877 115.825 33.8171 116.092 33.4524C116.348 33.1032 116.667 32.776 117.064 32.6536L117.065 32.6526C117.32 32.5746 117.687 32.5169 118.034 32.5032C118.21 32.4962 118.394 32.5006 118.567 32.5227Z" fill="#83F6AD" stroke="black"/>
<defs>
<filter id="filter0_d_2997_1048" x="0" y="27.938" width="117.334" height="156.198" filterUnits="userSpaceOnUse" color-interpolation-filters="sRGB">
<feFlood flood-opacity="0" result="BackgroundImageFix"/>
<feColorMatrix in="SourceAlpha" type="matrix" values="0 0 0 0 0 0 0 0 0 0 0 0 0 0 0 0 0 0 127 0" result="hardAlpha"/>
<feOffset dx="1" dy="1"/>
<feComposite in2="hardAlpha" operator="out"/>
<feColorMatrix type="matrix" values="0 0 0 0 0 0 0 0 0 0 0 0 0 0 0 0 0 0 0.17 0"/>
<feBlend mode="normal" in2="BackgroundImageFix" result="effect1_dropShadow_2997_1048"/>
<feBlend mode="normal" in="SourceGraphic" in2="effect1_dropShadow_2997_1048" result="shape"/>
</filter>
<filter id="filter1_d_2997_1048" x="81.1233" y="1.12915" width="27.0818" height="28.1396" filterUnits="userSpaceOnUse" color-interpolation-filters="sRGB">
<feFlood flood-opacity="0" result="BackgroundImageFix"/>
<feColorMatrix in="SourceAlpha" type="matrix" values="0 0 0 0 0 0 0 0 0 0 0 0 0 0 0 0 0 0 127 0" result="hardAlpha"/>
<feOffset dx="1" dy="1"/>
<feComposite in2="hardAlpha" operator="out"/>
<feColorMatrix type="matrix" values="0 0 0 0 0 0 0 0 0 0 0 0 0 0 0 0 0 0 0.17 0"/>
<feBlend mode="normal" in2="BackgroundImageFix" result="effect1_dropShadow_2997_1048"/>
<feBlend mode="normal" in="SourceGraphic" in2="effect1_dropShadow_2997_1048" result="shape"/>
</filter>
<filter id="filter2_d_2997_1048" x="100.628" y="35.3567" width="41.3806" height="43.1914" filterUnits="userSpaceOnUse" color-interpolation-filters="sRGB">
<feFlood flood-opacity="0" result="BackgroundImageFix"/>
<feColorMatrix in="SourceAlpha" type="matrix" values="0 0 0 0 0 0 0 0 0 0 0 0 0 0 0 0 0 0 127 0" result="hardAlpha"/>
<feOffset dx="1" dy="1"/>
<feComposite in2="hardAlpha" operator="out"/>
<feColorMatrix type="matrix" values="0 0 0 0 0 0 0 0 0 0 0 0 0 0 0 0 0 0 0.17 0"/>
<feBlend mode="normal" in2="BackgroundImageFix" result="effect1_dropShadow_2997_1048"/>
<feBlend mode="normal" in="SourceGraphic" in2="effect1_dropShadow_2997_1048" result="shape"/>
</filter>
</defs>
</svg>
