<svg width="134" height="135" viewBox="0 0 134 135" fill="none" xmlns="http://www.w3.org/2000/svg">
<g clip-path="url(#clip0_0_1)">
<path d="M27.4979 1.80731C28.8498 2.75344 25.6561 8.08477 25.1623 9.42742C23.587 13.7066 22.0234 18.5197 21.0516 22.9756C20.4755 25.6138 18.1831 38.6437 19.6722 40.0688C20.0719 40.4496 21.0398 40.5242 21.6041 40.8815C22.5446 41.4821 24.0768 43.3783 24.261 43.4215C25.178 43.6217 26.0832 42.7698 26.9571 42.6324C36.601 41.0896 34.4457 58.2574 35.4607 63.9067C35.7663 65.6066 37.7962 69.5011 37.7218 70.2705C37.5337 72.2924 35.8682 71.7506 34.8063 70.4472C30.9738 65.744 32.7842 55.4739 31.3343 49.5851C29.4219 41.8394 23.1873 47.1982 21.4591 52.0388C19.488 57.5586 20.4638 64.7311 22.6347 70.0821C25.3543 76.7875 33.4739 86.7238 41.6131 82.4329C47.5891 79.2804 43.9055 74.1728 43.5998 69.1006C43.498 67.4243 44.0623 64.8096 43.9094 63.6947C43.7448 62.4816 42.0049 59.7845 41.7267 58.0218C40.5197 50.3664 46.1353 47.8185 52.3543 51.3007L65.5211 60.1182C64.4513 62.5758 62.6918 61.7789 60.8579 60.8406C57.4995 59.1171 54.5487 55.5642 50.9122 53.9232C41.4054 49.6362 44.2935 59.7845 48.0868 64.2247C53.2125 70.2273 69.3654 80.8076 75.024 70.3648C80.0831 61.0251 69.2322 47.8813 68.2877 37.3011C67.4922 28.3776 70.6272 14.2876 74.3696 6.11006C75.1416 4.42586 75.749 2.03501 77.8808 2.13315C81.2195 2.28626 77.2694 8.47736 76.6072 10.3186C72.7864 20.9538 70.3843 32.382 73.4879 43.4765C76.1761 53.0909 84.7307 62.6936 77.4654 72.418C74.6282 76.2143 70.7291 78.189 65.9326 77.9417C66.5439 80.4974 67.986 83.0375 69.53 85.1299C72.0928 88.6004 77.5437 91.8667 78.594 96.0713C79.8989 101.32 75.2239 104.551 70.4509 104.661C59.6627 104.905 49.8659 91.5173 46.727 82.2601C39.7713 90.1668 29.5669 86.2213 24.1983 78.7347C16.2786 86.9084 9.99687 75.8924 8.9349 68.5C7.30863 67.9032 6.05073 68.1584 4.59688 66.9571C0.474397 63.5455 -0.274077 55.9843 0.0786074 51.0377C0.525341 44.7642 4.53027 31.2199 12.4422 31.3063C14.0723 31.322 15.1421 32.3427 16.549 32.7981C17.1642 24.5263 19.3313 15.328 22.6308 7.68041C23.1716 6.42413 25.6208 0.492141 27.4979 1.81123V1.80731ZM8.31966 64.9902V55.7644C8.31966 53.4992 10.6826 46.5112 11.917 44.4501C13.5198 41.7726 15.1617 41.8669 15.0011 38.0863C14.762 32.5272 9.96552 34.5098 7.59862 37.7722C3.41735 43.5314 1.12882 56.9932 5.40414 63.0037C5.75682 63.4984 7.69659 65.6341 8.31966 64.9902ZM17.6344 43.0839C15.6829 43.5668 13.8176 47.0176 13.1201 48.7921C10.5847 55.2462 10.667 66.0031 13.2298 72.4415C14.3545 75.2642 16.404 79.3668 20.0641 78.1183C23.9593 76.7914 20.7694 73.5683 19.8916 71.2638C16.5646 62.513 15.8789 52.9182 21.996 45.2196C21.1143 43.9358 19.2215 42.6874 17.6344 43.0839ZM62.3078 77.2507C57.8169 75.6254 53.5181 72.9715 49.8541 69.9015C49.3408 69.4736 46.8328 66.4624 46.3351 66.9532C47.1306 75.2132 49.474 83.0806 54.0824 90.0059C57.6837 95.4157 66.1403 104.041 73.3311 100.869C80.2006 97.838 70.9015 91.5487 68.66 89.1422C65.5603 85.817 63.7107 81.5142 62.3117 77.2468L62.3078 77.2507Z" fill="black" stroke="black"/>
<g clip-path="url(#clip1_0_1)">
<path d="M47.5618 67.918C50.2738 70.0284 52.788 72.268 55.6497 74.0674H55.6487C56.3857 74.5304 57.8201 75.1175 59.178 75.6533C59.8436 75.916 60.4864 76.1651 60.9856 76.3701C61.0794 76.4087 61.1692 76.4463 61.2542 76.4824V76.1914L62.0823 76.9121C62.1783 76.9957 62.2489 77.1154 62.2854 77.1787C62.3349 77.2646 62.3903 77.3714 62.4485 77.4912C62.5655 77.7319 62.7092 78.0533 62.8713 78.4268C63.1957 79.1738 63.6062 80.1595 64.0383 81.1816C64.4721 82.2076 64.93 83.2747 65.3557 84.1982C65.7859 85.1313 66.1688 85.8861 66.4524 86.3066C66.6562 86.6086 67.0087 87.0086 67.4846 87.4971C67.9558 87.9807 68.526 88.5289 69.1487 89.127C70.3875 90.3168 71.8295 91.6963 73.0383 93.0791C74.234 94.447 75.2644 95.8861 75.6047 97.2021C75.7785 97.8742 75.7821 98.5517 75.4993 99.1748C75.2159 99.799 74.6759 100.299 73.8987 100.676C70.5307 102.311 67.0457 101.678 63.7971 99.7324C60.5593 97.7928 57.5065 94.525 54.9094 90.7715C52.3086 87.0125 50.1426 82.733 48.6907 78.7324C47.2441 74.7463 46.4856 70.9798 46.7571 68.2627L46.8469 67.3623L47.5618 67.918Z" fill="white" stroke="black"/>
<path d="M17.8467 42.8721C18.3279 42.8811 18.8127 42.9974 19.3047 43.1406C19.8218 43.2911 20.3155 43.4596 20.9404 43.6279L21.3389 43.7354L21.3086 44.1475C21.2186 45.3955 20.6561 46.3864 20.0684 47.2783C19.539 48.0818 19.0096 48.7832 18.6416 49.5859L18.4941 49.9365C15.0392 58.9953 17.7975 67.1758 21.3271 75.8359L21.3652 75.9297L21.3643 76.0303C21.356 76.8131 21.0593 77.4096 20.5176 77.7646C20.0055 78.1001 19.3574 78.1645 18.7393 78.0947C17.5068 77.9555 16.0984 77.2517 15.2842 76.3652C13.8241 74.7786 12.7683 72.3809 12.0713 69.6309C11.3718 66.871 11.0214 63.7084 11.0068 60.5469C10.9923 57.3852 11.3137 54.2087 11.9639 51.4189C12.6119 48.6385 13.5968 46.1984 14.9414 44.5488C15.935 43.3292 16.8137 42.8527 17.8467 42.8721Z" fill="white" stroke="black"/>
<path d="M10.9463 34.6152C11.8256 34.2385 12.8109 34.0944 13.5947 34.6484C14.3663 35.1941 14.741 36.2789 14.7607 37.8428V37.8438C14.7655 38.2495 14.6685 38.7301 14.5195 39.2432C14.3685 39.7634 14.1538 40.3513 13.9004 40.9814C13.3945 42.2392 12.716 43.712 12.0479 45.2109C11.3759 46.7184 10.7097 48.2611 10.2119 49.6895C9.71079 51.1274 9.39746 52.403 9.39746 53.3867V53.417L9.39355 53.4473L8.09277 63.9717L8.03809 64.4102H7.64941C7.23455 64.5073 6.89762 64.5496 6.62305 64.5205C6.30242 64.4865 6.04854 64.3524 5.87891 64.1113C5.74792 63.9249 5.68757 63.6853 5.65625 63.585C5.6247 63.484 5.59678 63.4112 5.56055 63.3506L5.52148 63.2939C3.15426 60.3127 2.48658 55.6781 2.81445 51.1289C3.14348 46.564 4.48397 41.9511 6.27832 38.9258C6.76422 38.1058 7.4915 37.22 8.30664 36.4492C9.11951 35.6806 10.0486 34.9999 10.9463 34.6152Z" fill="white" stroke="black"/>
</g>
</g>
<g clip-path="url(#clip2_0_1)">
<mask id="path-5-outside-1_0_1" maskUnits="userSpaceOnUse" x="17.4131" y="0.618164" width="60" height="84" fill="black">
<rect fill="white" x="17.4131" y="0.618164" width="60" height="84"/>
<path d="M28.183 1.61816C28.2548 5.87808 25.4721 9.40778 24.2042 13.3284C21.5719 21.4798 19.9786 29.912 19.4131 38.4857L23.8317 42.9052C25.3442 43.55 26.8769 41.7503 28.9549 42.0828C36.7845 43.3343 34.8053 57.7025 35.658 63.1487C36.1674 66.3953 39.0802 69.2286 37.6642 72.4505C34.8995 72.7987 33.3129 70.0576 32.5185 67.7524C30.1286 60.8166 32.4108 53.6134 29.5563 46.9876C21.076 45.7653 20.2771 57.1992 20.9727 63.2431C21.9309 71.5787 32.4602 88.9127 41.9953 81.5252C46.4341 78.0876 43.2677 74.2928 42.7807 69.8891C42.5406 67.7142 43.3754 65.1641 43.1129 63.5981C42.4419 59.6258 38.3397 56.9094 42.1591 51.7463C47.6818 44.278 60.7962 57.015 66.0564 60.3852L64.9029 62.2658C58.5297 63.9486 52.051 51.3621 45.0607 54.2919C43.5909 63.7464 58.4243 74.2119 66.5837 74.6006C85.2949 75.4926 69.05 47.6077 67.9055 40.3551C66.6982 32.7182 68.0581 24.2074 69.9723 16.793C70.7375 13.825 74.0184 2.40903 76.8437 1.69905"/>
</mask>
<path d="M28.183 1.61816C28.2548 5.87808 25.4721 9.40778 24.2042 13.3284C21.5719 21.4798 19.9786 29.912 19.4131 38.4857L23.8317 42.9052C25.3442 43.55 26.8769 41.7503 28.9549 42.0828C36.7845 43.3343 34.8053 57.7025 35.658 63.1487C36.1674 66.3953 39.0802 69.2286 37.6642 72.4505C34.8995 72.7987 33.3129 70.0576 32.5185 67.7524C30.1286 60.8166 32.4108 53.6134 29.5563 46.9876C21.076 45.7653 20.2771 57.1992 20.9727 63.2431C21.9309 71.5787 32.4602 88.9127 41.9953 81.5252C46.4341 78.0876 43.2677 74.2928 42.7807 69.8891C42.5406 67.7142 43.3754 65.1641 43.1129 63.5981C42.4419 59.6258 38.3397 56.9094 42.1591 51.7463C47.6818 44.278 60.7962 57.015 66.0564 60.3852L64.9029 62.2658C58.5297 63.9486 52.051 51.3621 45.0607 54.2919C43.5909 63.7464 58.4243 74.2119 66.5837 74.6006C85.2949 75.4926 69.05 47.6077 67.9055 40.3551C66.6982 32.7182 68.0581 24.2074 69.9723 16.793C70.7375 13.825 74.0184 2.40903 76.8437 1.69905" fill="white"/>
<path d="M24.2042 13.3284L23.2527 13.0207L23.2526 13.0211L24.2042 13.3284ZM19.4131 38.4857L18.4153 38.4199L18.3854 38.8722L18.7059 39.1928L19.4131 38.4857ZM23.8317 42.9052L23.1245 43.6122L23.2614 43.7491L23.4395 43.8251L23.8317 42.9052ZM28.9549 42.0828L28.7969 43.0703L28.7971 43.0703L28.9549 42.0828ZM35.658 63.1487L34.67 63.3034L34.6701 63.3037L35.658 63.1487ZM37.6642 72.4505L37.7892 73.4426L38.3516 73.3718L38.5797 72.8528L37.6642 72.4505ZM32.5185 67.7524L31.5731 68.0782L31.5731 68.0782L32.5185 67.7524ZM29.5563 46.9876L30.4747 46.5919L30.2532 46.0777L29.699 45.9978L29.5563 46.9876ZM20.9727 63.2431L21.9662 63.1289L21.9662 63.1288L20.9727 63.2431ZM41.9953 81.5252L41.383 80.7346L41.3829 80.7347L41.9953 81.5252ZM42.7807 69.8891L41.7868 69.9988L41.7868 69.999L42.7807 69.8891ZM43.1129 63.5981L44.0991 63.4327L44.0989 63.4315L43.1129 63.5981ZM42.1591 51.7463L42.9631 52.341L42.9632 52.3409L42.1591 51.7463ZM66.0564 60.3852L66.9088 60.908L67.4215 60.0722L66.5959 59.5432L66.0564 60.3852ZM64.9029 62.2658L65.1582 63.2326L65.5458 63.1303L65.7553 62.7886L64.9029 62.2658ZM45.0607 54.2919L44.6742 53.3696L44.1585 53.5858L44.0726 54.1383L45.0607 54.2919ZM66.5837 74.6006L66.6314 73.6018H66.6313L66.5837 74.6006ZM67.9055 40.3551L68.8933 40.1992L68.8932 40.1989L67.9055 40.3551ZM69.9723 16.793L70.9406 17.043L70.9406 17.0426L69.9723 16.793ZM28.183 1.61816L27.1831 1.63502C27.2153 3.54292 26.6102 5.32803 25.7819 7.19498C24.9824 8.99701 23.9073 10.9966 23.2527 13.0207L24.2042 13.3284L25.1557 13.6361C25.769 11.7396 26.7192 10.014 27.6101 8.00606C28.4721 6.06302 29.2225 3.95332 29.1828 1.60131L28.183 1.61816ZM24.2042 13.3284L23.2526 13.0211C20.5945 21.2524 18.9861 29.7658 18.4153 38.4199L19.4131 38.4857L20.4109 38.5515C20.9711 30.0582 22.5493 21.7072 25.1558 13.6357L24.2042 13.3284ZM19.4131 38.4857L18.7059 39.1928L23.1245 43.6122L23.8317 42.9052L24.5389 42.1981L20.1203 37.7787L19.4131 38.4857ZM23.8317 42.9052L23.4395 43.8251C24.6358 44.3351 25.801 43.8357 26.5478 43.5415C27.4206 43.1977 28.0699 42.9539 28.7969 43.0703L28.9549 42.0828L29.1129 41.0954C27.7619 40.8792 26.6059 41.369 25.8147 41.6807C24.8975 42.042 24.5401 42.1201 24.2239 41.9853L23.8317 42.9052ZM28.9549 42.0828L28.7971 43.0703C30.3995 43.3264 31.5095 44.2342 32.3195 45.6366C33.1514 47.0769 33.6427 49.008 33.9316 51.1749C34.2189 53.3302 34.2955 55.6265 34.3523 57.7621C34.408 59.858 34.4442 61.8611 34.67 63.3034L35.658 63.1487L36.646 62.994C36.4454 61.7133 36.4093 59.878 36.3516 57.709C36.295 55.5797 36.2172 53.1845 35.914 50.9106C35.6124 48.6482 35.0772 46.4122 34.0514 44.6363C33.0038 42.8226 31.4252 41.465 29.1128 41.0954L28.9549 42.0828ZM35.658 63.1487L34.6701 63.3037C34.8157 64.232 35.1285 65.1037 35.4627 65.9041C35.63 66.3046 35.8085 66.7007 35.9773 67.0777C36.1483 67.4596 36.3102 67.824 36.4564 68.1845C37.0446 69.6355 37.2881 70.8209 36.7487 72.0481L37.6642 72.4505L38.5797 72.8528C39.4564 70.8581 38.9515 69.0159 38.3099 67.4332C38.1486 67.0353 37.973 66.6409 37.8027 66.2604C37.6302 65.8751 37.4636 65.5053 37.3083 65.1334C36.9973 64.3887 36.755 63.6888 36.6459 62.9937L35.658 63.1487ZM37.6642 72.4505L37.5392 71.4583C36.5686 71.5806 35.7834 71.1873 35.094 70.4255C34.382 69.6387 33.8412 68.5211 33.464 67.4266L32.5185 67.7524L31.5731 68.0782C31.9903 69.2889 32.64 70.6945 33.6111 71.7675C34.6047 72.8654 35.9951 73.6686 37.7892 73.4426L37.6642 72.4505ZM32.5185 67.7524L33.464 67.4266C32.3292 64.1334 32.2973 60.7652 32.2113 57.2294C32.1267 53.7466 31.9883 50.1051 30.4747 46.5919L29.5563 46.9876L28.6379 47.3832C29.9789 50.4959 30.1266 53.7688 30.2119 57.278C30.296 60.7343 30.3179 64.4356 31.5731 68.0782L32.5185 67.7524ZM29.5563 46.9876L29.699 45.9978C27.3347 45.657 25.412 46.1963 23.9191 47.3778C22.4573 48.5347 21.4981 50.2348 20.8764 52.0696C19.6372 55.7267 19.623 60.2618 19.9793 63.3575L20.9727 63.2431L21.9662 63.1288C21.6268 60.1806 21.6642 55.9768 22.7706 52.7115C23.3217 51.0851 24.1089 49.7782 25.1602 48.9461C26.1805 48.1386 27.5378 47.707 29.4137 47.9774L29.5563 46.9876ZM20.9727 63.2431L19.9793 63.3573C20.4853 67.7594 23.4611 74.3626 27.5192 78.9434C29.5538 81.2402 31.9416 83.1221 34.5302 83.9137C37.1797 84.7239 39.9638 84.3642 42.6078 82.3157L41.9953 81.5252L41.3829 80.7347C39.2592 82.38 37.1515 82.6238 35.1151 82.0011C33.0178 81.3598 30.9255 79.7724 29.0162 77.6172C25.1863 73.294 22.4184 67.0624 21.9662 63.1289L20.9727 63.2431ZM41.9953 81.5252L42.6076 82.3159C43.838 81.363 44.6067 80.3319 45.0024 79.2083C45.3953 78.0925 45.3873 76.9786 45.2235 75.917C45.0625 74.8739 44.7362 73.8045 44.4487 72.8052C44.1529 71.777 43.8861 70.7869 43.7747 69.7792L42.7807 69.8891L41.7868 69.999C41.9188 71.1931 42.2305 72.3288 42.5266 73.3581C42.8311 74.4163 43.1102 75.3362 43.2469 76.222C43.3807 77.0892 43.3625 77.8438 43.1159 78.544C42.8721 79.2363 42.372 79.9687 41.383 80.7346L41.9953 81.5252ZM42.7807 69.8891L43.7747 69.7794C43.6701 68.8323 43.7981 67.7715 43.9466 66.6461C44.0839 65.6063 44.2611 64.399 44.0991 63.4327L43.1129 63.5981L42.1266 63.7635C42.2272 64.3632 42.1183 65.214 41.9638 66.3844C41.8206 67.4694 41.6512 68.771 41.7868 69.9988L42.7807 69.8891ZM43.1129 63.5981L44.0989 63.4315C43.9075 62.2986 43.4762 61.2826 43.049 60.3719C42.6047 59.4244 42.19 58.6357 41.8968 57.7909C41.6148 56.9783 41.4787 56.1941 41.5933 55.3527C41.7081 54.5104 42.0856 53.5272 42.9631 52.341L42.1591 51.7463L41.3552 51.1516C40.323 52.5469 39.781 53.8395 39.6116 55.0827C39.4422 56.3269 39.6574 57.4382 40.0074 58.4466C40.3462 59.4228 40.8441 60.3807 41.2383 61.2211C41.6497 62.0983 41.9827 62.9114 42.1268 63.7647L43.1129 63.5981ZM42.1591 51.7463L42.9632 52.3409C44.1015 50.8015 45.5891 50.2976 47.3896 50.4671C49.2614 50.6432 51.4322 51.554 53.7061 52.8672C55.963 54.1707 58.2271 55.814 60.2775 57.3615C62.296 58.8849 64.1588 60.3571 65.5169 61.2272L66.0564 60.3852L66.5959 59.5432C65.3239 58.7282 63.5748 57.3444 61.4824 55.7651C59.4218 54.21 57.0759 52.5039 54.7063 51.1353C52.3538 49.7766 49.8817 48.6928 47.5769 48.4759C45.2009 48.2523 42.9781 48.9569 41.3551 51.1517L42.1591 51.7463ZM66.0564 60.3852L65.204 59.8623L64.0505 61.7429L64.9029 62.2658L65.7553 62.7886L66.9088 60.908L66.0564 60.3852ZM64.9029 62.2658L64.6476 61.2989C63.4186 61.6234 62.1005 61.2884 60.5832 60.444C59.0564 59.5943 57.5078 58.3347 55.8288 57.0231C54.193 55.7453 52.4365 54.4218 50.6158 53.6228C48.7632 52.8097 46.7513 52.4991 44.6742 53.3696L45.0607 54.2919L45.4473 55.2142C46.8653 54.6198 48.2846 54.7838 49.812 55.4541C51.3712 56.1384 52.9434 57.307 54.5977 58.5993C56.2088 59.8578 57.9117 61.2461 59.6106 62.1916C61.3189 63.1423 63.2006 63.7495 65.1582 63.2326L64.9029 62.2658ZM45.0607 54.2919L44.0726 54.1383C43.6603 56.7904 44.4016 59.4462 45.7859 61.8917C47.1705 64.3377 49.2294 66.6321 51.5651 68.6092C56.2016 72.5337 62.154 75.3907 66.5362 75.5995L66.5837 74.6006L66.6313 73.6018C62.854 73.4218 57.31 70.8517 52.8573 67.0827C50.6485 65.213 48.7647 63.094 47.5264 60.9065C46.2879 58.7185 45.7262 56.5207 46.0489 54.4455L45.0607 54.2919ZM66.5837 74.6006L66.5361 75.5995C68.9867 75.7163 70.9688 75.3681 72.5169 74.572C74.086 73.7652 75.138 72.5341 75.7673 71.0324C76.991 68.1123 76.6012 64.2053 75.6628 60.2985C74.7127 56.3427 73.136 52.1471 71.7465 48.5323C71.0474 46.7136 70.3987 45.0498 69.887 43.6105C69.3705 42.1575 69.0205 41.0055 68.8933 40.1992L67.9055 40.3551L66.9177 40.5109C67.0766 41.5178 67.4847 42.8237 68.0025 44.2804C68.5252 45.7507 69.1872 47.4484 69.8797 49.2499C71.2732 52.8754 72.8029 56.9552 73.7182 60.7656C74.6452 64.6252 74.8798 67.9754 73.9227 70.2595C73.4615 71.3599 72.7219 72.2177 71.6023 72.7934C70.4619 73.3798 68.8586 73.7079 66.6314 73.6018L66.5837 74.6006ZM67.9055 40.3551L68.8932 40.1989C67.718 32.7649 69.0379 24.4127 70.9406 17.043L69.9723 16.793L69.0041 16.543C67.0783 24.0021 65.6784 32.6715 66.9178 40.5112L67.9055 40.3551ZM69.9723 16.793L70.9406 17.0426C71.3181 15.5787 72.3188 12.0223 73.5693 8.75689C74.1961 7.1203 74.8718 5.59354 75.5473 4.44732C75.8855 3.87338 76.2058 3.4257 76.4984 3.11348C76.8034 2.78796 77.0036 2.68996 77.0874 2.66889L76.8437 1.69905L76.6 0.729202C75.9775 0.885633 75.4571 1.29969 75.0389 1.74597C74.6083 2.20555 74.2028 2.78941 73.8242 3.43193C73.066 4.71863 72.3439 6.36448 71.7016 8.04162C70.4141 11.4037 69.3918 15.0393 69.004 16.5433L69.9723 16.793Z" fill="black" mask="url(#path-5-outside-1_0_1)"/>
</g>
<path d="M87.537 112.359C87.8873 112.685 88.4407 113.641 88.5677 114.109C89.1769 116.326 89.0551 125.329 88.7352 127.735C88.3798 130.416 83.9272 132.46 81.5004 133.203C76.1238 134.841 60.9738 136.301 59.801 128.696C59.5218 126.891 59.1867 118.921 59.3542 117.018C59.7249 112.807 63.751 111.322 67.3811 110.416C72.58 109.114 83.3535 108.478 87.537 112.359ZM71.3361 113.865C70.077 114.017 64.0861 115.457 63.8322 116.525C63.1823 119.297 75.0271 118.921 76.7127 118.743C78.3983 118.564 87.3136 116.632 83.4094 114.704C80.5916 113.31 74.5194 113.478 71.3361 113.86V113.865ZM85.1559 120.843C77.8347 122.985 70.8233 123.651 63.3296 121.86C63.7408 124.042 63.091 128.62 65.0507 129.541C69.6048 131.677 81.4648 130.568 85.0594 126.596L85.1559 120.848V120.843Z" fill="black"/>
<path d="M85.1556 120.843L85.0592 126.591C81.4697 130.563 69.6046 131.672 65.0505 129.536C63.0856 128.615 63.7406 124.037 63.3293 121.855C70.8231 123.651 77.8345 122.979 85.1556 120.838V120.843Z" fill="#5FFF8F"/>
<path d="M71.3359 113.865C74.5193 113.483 80.5965 113.315 83.4092 114.709C87.3135 116.637 78.4642 118.564 76.7126 118.748C74.961 118.931 63.1822 119.302 63.8321 116.53C64.0808 115.457 70.0718 114.017 71.3359 113.87V113.865Z" fill="#5FFF8F"/>
<path d="M116.987 57.8291C117.166 57.822 117.375 57.8253 117.588 57.8525C117.753 57.8736 118.016 57.9199 118.289 58.0508L118.407 58.1123L118.858 58.3682L119.054 58.8486L122.704 67.7656L130.761 71.2275L130.86 71.2695L130.951 71.3262C131.812 71.8527 132.077 72.7971 132.155 73.3486C132.238 73.9388 132.2 74.708 131.868 75.3398C131.707 75.6483 131.48 75.8587 131.342 75.9756C131.185 76.1081 131.015 76.2238 130.856 76.3213C130.538 76.5166 130.152 76.7099 129.751 76.8945C128.945 77.2662 127.925 77.6715 126.92 78.0605C125.895 78.4575 124.887 78.8374 124.035 79.1816C123.383 79.4453 122.926 79.6481 122.657 79.7852C122.103 80.7488 121.664 82.1629 121.15 83.8262C120.883 84.6906 120.598 85.6031 120.275 86.4355C119.955 87.2588 119.563 88.0976 119.044 88.7832V88.7842C118.603 89.3661 117.969 89.9406 117.096 90.042C116.183 90.148 115.503 89.6851 115.113 89.3066C114.722 88.9284 114.433 88.4626 114.233 88.0977C114.13 87.9102 114.034 87.7187 113.949 87.5439L113.736 87.0908C113.129 85.803 112.666 84.4025 112.231 83.1143C111.848 81.9825 111.482 80.927 111.046 79.96L102.922 76.4336L102.77 76.3682L102.636 76.2695C101.685 75.5762 101.285 74.5245 101.465 73.4824C101.63 72.5259 102.249 71.7301 103.017 71.2373C103.617 70.8515 104.397 70.52 105.154 70.2305C105.923 69.936 106.797 69.6385 107.593 69.3574C108.412 69.0682 109.167 68.7898 109.792 68.5078C110.441 68.2151 110.795 67.9837 110.942 67.8408C110.951 67.8295 110.974 67.8014 111.009 67.748C111.058 67.672 111.119 67.5678 111.19 67.4297C111.332 67.1511 111.487 66.7892 111.657 66.3525C112 65.4718 112.35 64.4209 112.729 63.3252C113.096 62.2631 113.494 61.1524 113.906 60.2705C114.112 59.8316 114.347 59.391 114.617 59.0225C114.854 58.6996 115.283 58.1982 115.946 57.9941L115.949 57.9932C116.259 57.8987 116.643 57.8427 116.987 57.8291Z" fill="white" stroke="white" stroke-width="3"/>
<path d="M115.898 55.1318C115.964 55.1353 116.031 55.1418 116.095 55.1543C116.122 55.1597 116.158 55.1679 116.198 55.1807L116.324 55.2363L116.48 55.3242L116.543 55.4902L121.181 67.5283L128.602 69.0664L128.687 69.084L128.761 69.1299C128.927 69.2316 129.06 69.3971 129.157 69.5361C129.265 69.6899 129.373 69.8772 129.478 70.0791C129.688 70.484 129.904 70.9852 130.089 71.4863C130.274 71.987 130.435 72.5029 130.531 72.9365C130.579 73.152 130.615 73.3602 130.626 73.543C130.636 73.6987 130.638 73.9352 130.533 74.1348C130.459 74.2777 130.345 74.3917 130.243 74.4775C130.136 74.5686 130.008 74.6571 129.869 74.7422C129.593 74.9125 129.238 75.0931 128.839 75.2773C128.04 75.6466 127.015 76.0549 125.977 76.458C124.932 76.8637 123.874 77.264 122.986 77.624C122.153 77.9617 121.526 78.2427 121.204 78.4414C120.473 79.5904 119.951 81.3064 119.4 83.0947C119.122 83.9943 118.839 84.9042 118.521 85.7256C118.204 86.5437 117.841 87.3061 117.393 87.9004C117.006 88.4125 116.575 88.7395 116.094 88.834C115.603 88.9304 115.168 88.7639 114.825 88.5195C114.172 88.0535 113.694 87.1946 113.432 86.6357V86.6348C112.83 85.3519 112.436 83.8745 112.048 82.4541C111.672 81.0772 111.299 79.7504 110.754 78.5967L102.008 74.791L101.957 74.7686L101.912 74.7363C101.594 74.5037 101.247 74.1115 100.933 73.6719C100.614 73.2246 100.304 72.6929 100.076 72.1543C99.8519 71.6237 99.6891 71.0461 99.7014 70.5186C99.7134 70.0064 99.8985 69.4926 100.391 69.1768L100.493 69.1162C101.08 68.7526 101.963 68.5868 102.881 68.4932C103.84 68.3954 104.948 68.3667 106.012 68.333C107.089 68.2989 108.12 68.259 108.968 68.1416C109.391 68.083 109.752 68.0071 110.04 67.9102C110.332 67.8121 110.513 67.7036 110.615 67.6025C110.712 67.5016 110.823 67.312 110.928 67.001C111.031 66.6956 111.117 66.3145 111.19 65.874C111.335 64.9907 111.419 63.9333 111.51 62.873C111.599 61.8291 111.696 60.7755 111.871 59.9512C111.959 59.5399 112.072 59.1542 112.231 58.8447C112.332 58.6471 112.471 58.4462 112.661 58.2979C112.747 56.8335 113.469 55.9816 114.269 55.5391C114.68 55.3117 115.098 55.1995 115.437 55.1543C115.606 55.1317 115.764 55.125 115.898 55.1318Z" fill="black" stroke="black"/>
<path d="M115.214 55.0936L119.221 64.91L128.116 68.7418C128.699 69.0996 128.782 70.3073 128.499 70.85C128.001 71.8012 120.627 74.0764 119.25 75.0276C117.63 77.4728 117.031 82.387 115.402 84.5459C114.018 86.3768 113.078 84.1761 112.558 83.0698C111.398 80.5978 110.76 77.6428 109.536 75.1618L100.616 71.2794C99.5923 70.5309 99.9462 69.2666 100.934 68.6314C102.835 67.4059 107.951 66.3354 109.38 64.9011C110.77 63.4727 112.357 55.5796 113.894 55.1055C114.226 55.0041 114.937 54.9355 115.214 55.0936Z" fill="white" stroke="black" stroke-width="2"/>
<defs>
<clipPath id="clip0_0_1">
<rect width="85.7415" height="124.568" fill="white" transform="translate(0 1.61816)"/>
</clipPath>
<clipPath id="clip1_0_1">
<rect width="71.9905" height="66.3283" fill="white" transform="translate(3.2356 34.7822)"/>
</clipPath>
<clipPath id="clip2_0_1">
<rect width="59.0484" height="84.1237" fill="white" transform="translate(19.4131)"/>
</clipPath>
</defs>
</svg>
