<svg width="84" height="24" viewBox="0 0 84 24" fill="none" xmlns="http://www.w3.org/2000/svg">
<path d="M6.79206 18.312C5.44806 18.312 4.26406 17.984 3.24006 17.328C2.22406 16.672 1.42806 15.792 0.852059 14.688C0.284059 13.576 5.8651e-05 12.344 5.8651e-05 10.992V1.2H3.31206V10.992C3.31206 11.72 3.44806 12.388 3.72006 12.996C3.99206 13.604 4.38806 14.092 4.90806 14.46C5.42806 14.82 6.05606 15 6.79206 15C7.53606 15 8.16406 14.82 8.67606 14.46C9.19606 14.1 9.58806 13.616 9.85206 13.008C10.1161 12.4 10.2481 11.728 10.2481 10.992V1.2H13.5601V10.992C13.5601 12.008 13.3961 12.96 13.0681 13.848C12.7481 14.728 12.2881 15.504 11.6881 16.176C11.0881 16.848 10.3721 17.372 9.54006 17.748C8.71606 18.124 7.80006 18.312 6.79206 18.312ZM20.4017 18.216C19.7857 18.168 19.1937 18.04 18.6257 17.832C18.0577 17.616 17.5497 17.328 17.1017 16.968C16.6617 16.6 16.3177 16.16 16.0697 15.648L18.8537 14.448C18.9417 14.576 19.0737 14.716 19.2497 14.868C19.4257 15.012 19.6377 15.14 19.8857 15.252C20.1417 15.364 20.4377 15.42 20.7737 15.42C21.0217 15.42 21.2617 15.392 21.4937 15.336C21.7257 15.272 21.9137 15.172 22.0577 15.036C22.2017 14.892 22.2737 14.704 22.2737 14.472C22.2737 14.216 22.1817 14.02 21.9977 13.884C21.8137 13.748 21.5897 13.648 21.3257 13.584C21.0697 13.512 20.8217 13.452 20.5817 13.404C19.8457 13.276 19.1497 13.048 18.4937 12.72C17.8457 12.384 17.3177 11.952 16.9097 11.424C16.5017 10.896 16.2977 10.264 16.2977 9.528C16.2977 8.72 16.5097 8.024 16.9337 7.44C17.3577 6.848 17.9097 6.392 18.5897 6.072C19.2697 5.752 20.0057 5.592 20.7977 5.592C21.7337 5.592 22.6017 5.788 23.4017 6.18C24.2017 6.572 24.8457 7.124 25.3337 7.836L22.7177 9.384C22.6137 9.232 22.4777 9.088 22.3097 8.952C22.1497 8.808 21.9617 8.688 21.7457 8.592C21.5377 8.488 21.3137 8.428 21.0737 8.412C20.7617 8.388 20.4777 8.408 20.2217 8.472C19.9657 8.528 19.7617 8.636 19.6097 8.796C19.4657 8.956 19.3937 9.172 19.3937 9.444C19.3937 9.708 19.5097 9.904 19.7417 10.032C19.9737 10.152 20.2417 10.244 20.5457 10.308C20.8497 10.364 21.1177 10.432 21.3497 10.512C22.0457 10.736 22.6977 11.024 23.3057 11.376C23.9217 11.72 24.4177 12.144 24.7937 12.648C25.1697 13.152 25.3457 13.744 25.3217 14.424C25.3217 15.216 25.0857 15.912 24.6137 16.512C24.1417 17.104 23.5297 17.556 22.7777 17.868C22.0337 18.172 21.2417 18.288 20.4017 18.216ZM32.8885 18.312C31.7845 18.312 30.7765 18.028 29.8645 17.46C28.9605 16.892 28.2365 16.128 27.6925 15.168C27.1565 14.208 26.8885 13.148 26.8885 11.988C26.8885 11.116 27.0445 10.3 27.3565 9.54C27.6685 8.772 28.0965 8.1 28.6405 7.524C29.1925 6.94 29.8325 6.484 30.5605 6.156C31.2885 5.828 32.0645 5.664 32.8885 5.664C33.8405 5.664 34.7085 5.868 35.4925 6.276C36.2845 6.684 36.9525 7.24 37.4965 7.944C38.0485 8.648 38.4405 9.444 38.6725 10.332C38.9125 11.22 38.9525 12.144 38.7925 13.104H30.4645C30.5685 13.456 30.7285 13.776 30.9445 14.064C31.1685 14.344 31.4405 14.568 31.7605 14.736C32.0885 14.904 32.4645 14.992 32.8885 15C33.3045 15.008 33.6885 14.912 34.0405 14.712C34.3925 14.512 34.6925 14.244 34.9405 13.908L38.3245 14.688C37.8365 15.752 37.1085 16.624 36.1405 17.304C35.1725 17.976 34.0885 18.312 32.8885 18.312ZM30.3445 10.656H35.4445C35.3405 10.256 35.1645 9.896 34.9165 9.576C34.6685 9.256 34.3685 9.004 34.0165 8.82C33.6725 8.636 33.2965 8.544 32.8885 8.544C32.4885 8.544 32.1125 8.636 31.7605 8.82C31.4165 9.004 31.1205 9.256 30.8725 9.576C30.6325 9.888 30.4565 10.248 30.3445 10.656ZM50.0918 6H53.4038V18H50.0798L49.9238 16.752C49.6118 17.216 49.2118 17.592 48.7238 17.88C48.2358 18.168 47.6638 18.312 47.0078 18.312C46.1118 18.312 45.2758 18.144 44.4998 17.808C43.7238 17.472 43.0398 17.008 42.4478 16.416C41.8558 15.824 41.3918 15.14 41.0558 14.364C40.7278 13.58 40.5638 12.74 40.5638 11.844C40.5638 10.988 40.7198 10.188 41.0318 9.444C41.3438 8.7 41.7838 8.044 42.3518 7.476C42.9198 6.908 43.5718 6.464 44.3078 6.144C45.0518 5.824 45.8518 5.664 46.7078 5.664C47.4438 5.664 48.1038 5.82 48.6878 6.132C49.2798 6.444 49.7958 6.84 50.2358 7.32L50.0918 6ZM46.9238 15.132C47.4678 15.132 47.9598 14.992 48.3998 14.712C48.8398 14.432 49.1878 14.056 49.4438 13.584C49.6998 13.104 49.8278 12.576 49.8278 12C49.8278 11.416 49.6998 10.888 49.4438 10.416C49.1878 9.944 48.8398 9.568 48.3998 9.288C47.9598 9.008 47.4678 8.868 46.9238 8.868C46.3718 8.868 45.8718 9.008 45.4238 9.288C44.9758 9.568 44.6198 9.948 44.3558 10.428C44.0918 10.9 43.9598 11.424 43.9598 12C43.9598 12.576 44.0918 13.104 44.3558 13.584C44.6278 14.056 44.9878 14.432 45.4358 14.712C45.8838 14.992 46.3798 15.132 46.9238 15.132ZM56.3071 18L56.2951 6H59.6071L59.6191 6.888C60.0191 6.504 60.4871 6.204 61.0231 5.988C61.5671 5.772 62.1391 5.664 62.7391 5.664C63.1791 5.664 63.6191 5.728 64.0591 5.856L62.7511 9.204C62.4631 9.084 62.1711 9.024 61.8751 9.024C61.4591 9.024 61.0791 9.124 60.7351 9.324C60.3911 9.524 60.1191 9.796 59.9191 10.14C59.7191 10.476 59.6191 10.856 59.6191 11.28V18H56.3071ZM65.8688 18V-1.43051e-06H69.1808V18H65.8688ZM79.8074 6H83.3354L76.7594 24H73.2554L75.4154 18L71.0954 6H74.7194L77.0714 13.476L79.8074 6Z" fill="black"/>
</svg>
