<svg width="160" height="160" viewBox="0 0 160 160" fill="none" xmlns="http://www.w3.org/2000/svg">
  <rect width="160" height="160" rx="8" fill="#FFFFFF"/>
  <rect x="8" y="8" width="144" height="144" rx="6" fill="#F7FAFC" stroke="#D7DEE8" stroke-width="2"/>
  <rect x="18" y="18" width="38" height="38" rx="4" fill="#111111"/>
  <rect x="26" y="26" width="22" height="22" rx="2" fill="#FFFFFF"/>
  <rect x="104" y="18" width="38" height="38" rx="4" fill="#111111"/>
  <rect x="112" y="26" width="22" height="22" rx="2" fill="#FFFFFF"/>
  <rect x="18" y="104" width="38" height="38" rx="4" fill="#111111"/>
  <rect x="26" y="112" width="22" height="22" rx="2" fill="#FFFFFF"/>
  <rect x="70" y="22" width="12" height="12" fill="#111111"/>
  <rect x="84" y="22" width="8" height="24" fill="#111111"/>
  <rect x="66" y="48" width="14" height="8" fill="#111111"/>
  <rect x="88" y="66" width="16" height="16" fill="#111111"/>
  <rect x="112" y="68" width="10" height="10" fill="#111111"/>
  <rect x="130" y="66" width="10" height="26" fill="#111111"/>
  <rect x="68" y="82" width="8" height="22" fill="#111111"/>
  <rect x="82" y="98" width="26" height="10" fill="#111111"/>
  <rect x="116" y="104" width="10" height="10" fill="#111111"/>
  <rect x="132" y="116" width="10" height="26" fill="#111111"/>
  <rect x="66" y="122" width="16" height="16" fill="#111111"/>
  <rect x="92" y="124" width="26" height="8" fill="#111111"/>
  <rect x="106" y="136" width="10" height="10" fill="#111111"/>
  <rect x="70" y="68" width="10" height="10" fill="#111111"/>
  <rect x="28" y="72" width="22" height="10" fill="#111111"/>
  <rect x="48" y="86" width="10" height="10" fill="#111111"/>
  <rect x="18" y="86" width="16" height="8" fill="#111111"/>
  <text x="80" y="88" text-anchor="middle" font-family="Inter, Arial, sans-serif" font-size="12" font-weight="800" fill="#365F8F">Usearly</text>
</svg>
