<svg width="37" height="35" viewBox="33 29 37 35" fill="none" xmlns="http://www.w3.org/2000/svg">
  <path
    d="M68 43.698C68 36.6851 62.3149 31 55.302 31L47.698 31C40.6851 31 35 36.6851 35 43.698V45.0374C35 51.3106 40.0854 56.3961 46.3586 56.3961C46.7606 56.3961 47.1601 56.4653 47.5337 56.6138C47.828 56.7308 48.1565 56.8688 48.3057 56.9572C48.5682 57.1127 53.5802 60.6857 54.8954 61.6239C55.0279 61.7183 55.2093 61.622 55.2093 61.4594V56.3961H56.2143C62.7234 56.3961 68 51.1194 68 44.6103V43.698Z"
    fill="#B8D1FF"
    stroke="black"
    stroke-width="2"
  />

  <path d="M46.8921 42.499C46.4768 42.499 46.121 42.646 45.8248 42.94C45.5325 43.234 45.3883 43.5899 45.3922 44.0077C45.3883 44.4178 45.5325 44.7679 45.8248 45.058C46.121 45.352 46.4768 45.499 46.8921 45.499C47.2844 45.499 47.6306 45.352 47.9306 45.058C48.2344 44.7679 48.3882 44.4178 48.3921 44.0077C48.3882 43.7292 48.3152 43.4758 48.1729 43.2476C48.0344 43.0193 47.8517 42.8375 47.6248 42.7021C47.4017 42.5667 47.1575 42.499 46.8921 42.499Z" fill="black"/>
  <path d="M51.8921 42.499C51.4768 42.499 51.121 42.646 50.8248 42.94C50.5325 43.234 50.3883 43.5899 50.3922 44.0077C50.3883 44.4178 50.5325 44.7679 50.8248 45.058C51.121 45.352 51.4768 45.499 51.8921 45.499C52.2844 45.499 52.6306 45.352 52.9306 45.058C53.2344 44.7679 53.3882 44.4178 53.3921 44.0077C53.3882 43.7292 53.3152 43.4758 53.1729 43.2476C53.0344 43.0193 52.8517 42.8375 52.6248 42.7021C52.4017 42.5667 52.1575 42.499 51.8921 42.499Z" fill="black"/>
  <path d="M56.8921 42.499C56.4768 42.499 56.121 42.646 55.8248 42.94C55.5325 43.234 55.3883 43.5899 55.3922 44.0077C55.3883 44.4178 55.5325 44.7679 55.8248 45.058C56.121 45.352 56.4768 45.499 56.8921 45.499C57.2844 45.499 57.6306 45.352 57.9306 45.058C58.2344 44.7679 58.3882 44.4178 58.3921 44.0077C58.3882 43.7292 58.3152 43.4758 58.1729 43.2476C58.0344 43.0193 57.8517 42.8375 57.6248 42.7021C57.4017 42.5667 57.1575 42.499 56.8921 42.499Z" fill="black"/>
</svg>