<svg width="21" height="21" viewBox="0 0 21 21" fill="none" xmlns="http://www.w3.org/2000/svg">
<path d="M10.3379 0.0106681C9.96273 0.0695344 9.81186 0.40311 9.77924 0.732762C9.74662 1.06241 9.73847 2.07099 9.88525 2.35355C10.1584 2.86765 11.0514 2.77739 11.1656 2.23582C11.2145 2.0082 11.2145 0.720988 11.1737 0.485523C11.1126 0.124476 10.6844 -0.0442738 10.3338 0.0106681H10.3379ZM3.35728 2.78131C2.89653 2.87157 2.7579 3.46808 3.00254 3.81736C3.10448 3.96256 4.03414 4.85733 4.185 4.94759C4.8537 5.35573 5.58764 4.62971 5.13504 3.99003C5.02903 3.8409 4.13199 2.97753 3.97705 2.8755C3.79357 2.75776 3.57746 2.73422 3.35728 2.77739V2.78131ZM17.2328 2.78131C17.1431 2.80093 17.0534 2.86372 16.98 2.91866C16.821 3.0364 15.8628 3.95864 15.7935 4.08814C15.4591 4.7082 16.2094 5.35573 16.8454 4.93189C17.0126 4.82201 17.9993 3.84875 18.0564 3.70747C18.2848 3.15805 17.8281 2.66358 17.2287 2.78523L17.2328 2.78131ZM14.0239 15.0412C19.7486 11.2934 15.8138 2.67143 9.02492 4.20195C3.75279 5.39105 2.45209 12.1803 6.98212 15.0373C6.90057 16.0262 7.36948 17.0191 8.38068 17.3448C8.38068 18.0552 8.33991 18.6909 8.76804 19.3031C9.57129 20.4451 11.2716 20.4805 12.1564 19.3934C12.6865 18.7459 12.5519 18.1533 12.5967 17.3802C13.6365 16.9759 14.0687 16.089 14.0239 15.0373V15.0412ZM0.653942 9.41751C-0.247171 9.54309 -0.1697 10.6812 0.596858 10.7518C0.951595 10.7832 1.9628 10.795 2.29715 10.7479C2.90061 10.6576 3.01885 9.75893 2.42763 9.496C2.14221 9.37041 0.992369 9.37041 0.653942 9.41751ZM18.8067 9.41751C18.0157 9.52739 17.9912 10.5674 18.6395 10.7322C18.8556 10.7871 20.246 10.7832 20.4866 10.744C21.1064 10.6341 21.192 9.72754 20.5926 9.48422C20.3113 9.37041 19.137 9.37434 18.8067 9.42143V9.41751ZM4.45003 15.1275C4.33587 15.1432 4.24616 15.1982 4.15646 15.2649C4.00152 15.3748 2.97808 16.3716 2.91284 16.5011C2.59888 17.1251 3.33689 17.753 3.98113 17.3213C4.14015 17.2114 5.11058 16.2735 5.18805 16.1283C5.46532 15.6142 5.04534 15.0373 4.45411 15.1275H4.45003ZM16.3194 15.1236C15.8342 15.1903 15.5774 15.728 15.8138 16.1361C15.8669 16.2264 17.0004 17.3174 17.1023 17.3723C17.7343 17.7294 18.4397 17.0427 18.0727 16.4383C18.0116 16.3402 16.9148 15.2767 16.8128 15.2178C16.6783 15.1393 16.4785 15.1001 16.3235 15.1197L16.3194 15.1236Z" fill="white"/>
<path d="M14.0243 15.0406C14.0691 16.0884 13.6369 16.9792 12.5972 17.3834C12.5523 18.1566 12.6869 18.7452 12.1568 19.3967C11.272 20.4837 9.57172 20.4484 8.76847 19.3064C8.34034 18.6942 8.37704 18.0584 8.38111 17.3481C7.36583 17.0224 6.901 16.0334 6.98255 15.0406C2.45252 12.1836 3.75322 5.39041 9.02535 4.20524C15.8184 2.67471 19.749 11.2967 14.0243 15.0445V15.0406ZM10.2119 5.38649C5.90611 5.63765 3.99379 10.8061 7.21089 13.5846C7.47592 13.8161 8.20578 14.2007 8.32811 14.4441C8.59722 14.9817 8.00191 16.0609 9.11097 16.1669C9.76336 16.2297 11.2476 16.2297 11.8959 16.163C13.0212 16.0452 12.324 14.9621 12.7073 14.3852C12.8459 14.1772 13.327 13.9457 13.5554 13.7769C17.2699 10.9827 14.958 5.1157 10.2119 5.39041V5.38649ZM11.1823 17.509H9.78783V18.2429C9.78783 18.5372 10.1752 18.8355 10.4688 18.8473C10.7134 18.859 11.1823 18.6039 11.1823 18.3685V17.509Z" fill="black"/>
<path d="M16.3198 15.1234C16.4748 15.1038 16.6746 15.143 16.8091 15.2215C16.9111 15.2843 18.0079 16.3439 18.069 16.442C18.436 17.0464 17.7306 17.7292 17.0986 17.376C16.9967 17.3211 15.8632 16.2301 15.8101 16.1398C15.5737 15.7317 15.8305 15.194 16.3157 15.1273L16.3198 15.1234Z" fill="black" stroke="white" stroke-width="0.28" stroke-linejoin="round"/>
<path d="M4.45051 15.1271C5.04173 15.0368 5.46171 15.6137 5.18444 16.1278C5.10697 16.273 4.14062 17.2109 3.97752 17.3208C3.33329 17.7564 2.59527 17.1246 2.90924 16.5006C2.97448 16.3711 3.99791 15.3743 4.15285 15.2644C4.24256 15.1977 4.33634 15.1467 4.44643 15.1271H4.45051Z" fill="black" stroke="white" stroke-width="0.28" stroke-linejoin="round"/>
<path d="M18.8071 9.41686C19.1374 9.36976 20.3117 9.36976 20.593 9.47965C21.1924 9.71904 21.1068 10.6295 20.487 10.7394C20.2505 10.7826 18.856 10.7826 18.6399 10.7276C17.9916 10.5628 18.012 9.52674 18.8071 9.41293V9.41686Z" fill="black" stroke="white" stroke-width="0.28" stroke-linejoin="round"/>
<path d="M0.65443 9.41701C0.992858 9.36992 2.14269 9.36599 2.42811 9.4955C3.01934 9.75844 2.9011 10.6571 2.29764 10.7474C1.96329 10.7984 0.952083 10.7866 0.597346 10.7513C-0.169212 10.6807 -0.246683 9.54259 0.65443 9.41701Z" fill="black" stroke="white" stroke-width="0.28" stroke-linejoin="round"/>
<path d="M10.3383 0.0101798C10.6849 -0.0447621 11.113 0.123988 11.1783 0.485035C11.219 0.7205 11.219 2.01164 11.1701 2.23533C11.0559 2.7769 10.167 2.86716 9.88978 2.35306C9.73892 2.0705 9.75115 1.08155 9.78377 0.732273C9.81639 0.383 9.96725 0.0690461 10.3424 0.0101798H10.3383Z" fill="black" stroke="white" stroke-width="0.28" stroke-linejoin="round"/>
<path d="M3.35769 2.78084C3.57787 2.73767 3.79397 2.76122 3.97746 2.87895C4.1324 2.97706 5.02536 3.84044 5.13545 3.99349C5.58804 4.62925 4.85411 5.35919 4.18541 4.95105C4.03862 4.86079 3.10489 3.96602 3.00295 3.82082C2.7583 3.47154 2.90101 2.87503 3.35769 2.78477V2.78084Z" fill="black" stroke="white" stroke-width="0.28" stroke-linejoin="round"/>
<path d="M17.2332 2.78093C17.8367 2.65928 18.2893 3.15768 18.0609 3.70317C17.9998 3.84838 17.013 4.82163 16.8499 4.92759C16.2098 5.34751 15.4636 4.7039 15.7979 4.08384C15.8673 3.95434 16.8255 3.0321 16.9845 2.91436C17.0579 2.86335 17.1476 2.79663 17.2373 2.77701L17.2332 2.78093Z" fill="black" stroke="white" stroke-width="0.28" stroke-linejoin="round"/>
<path d="M10.2119 5.38678C14.9621 5.10814 17.2699 10.9791 13.5554 13.7733C13.327 13.9459 12.8418 14.1775 12.7073 14.3816C12.324 14.9584 13.0212 16.0416 11.8959 16.1593C11.2475 16.226 9.76336 16.226 9.11097 16.1632C8.00191 16.0534 8.59721 14.9781 8.3281 14.4404C8.20985 14.201 7.47999 13.8125 7.21088 13.581C3.99786 10.8025 5.9061 5.63401 10.2119 5.38285V5.38678Z" fill="white"/>
<path d="M11.1823 17.5093V18.3687C11.1823 18.6042 10.7134 18.8593 10.4688 18.8475C10.1711 18.8318 9.78784 18.5375 9.78784 18.2431V17.5093H11.1823Z" fill="white"/>
</svg>
