<?xml version="1.0" encoding="UTF-8"?>
<svg id="Calque_1" xmlns="http://www.w3.org/2000/svg" version="1.1" viewBox="0 0 56.7 62.2">
  <!-- Generator: Adobe Illustrator 29.3.1, SVG Export Plug-In . SVG Version: 2.1.0 Build 151)  -->
  <g>
    <path d="M39.8,2.3h-22.7c-7.7,0-13.9,6.3-13.9,13.9v21.4c0,7.7,6.3,13.9,13.9,13.9h1.4v8.5l13.5-8.5h7.7c7.7,0,13.9-6.3,13.9-13.9v-21.4c0-7.7-6.3-13.9-13.9-13.9ZM50.3,37.6c0,5.8-4.7,10.5-10.5,10.5h-8.7l-9,5.7v-5.7h-4.9c-5.8,0-10.5-4.7-10.5-10.5v-21.4c0-5.8,4.7-10.5,10.5-10.5h22.7c5.8,0,10.5,4.7,10.5,10.5v21.4Z"/>
    <path d="M36.1,14.4h-5.9c-.2,0-.3.2-.3.3v15c0,.8-.2,1.5-.5,2-.3.6-.8,1.1-1.4,1.4-.6.3-1.3.5-2.1.5s-1.5-.2-2.2-.5c-.6-.3-1.1-.8-1.4-1.4-.3-.6-.5-1.3-.5-2v-15c0-.2-.2-.3-.3-.3h-5.9c-.2,0-.3.2-.3.3v15.5c0,1.9.5,3.5,1.3,4.9.9,1.4,2.2,2.5,3.8,3.2,1.6.7,3.5,1.1,5.6,1.1s4-.4,5.6-1.1c1.6-.8,2.9-1.8,3.8-3.2.9-1.4,1.4-3,1.4-4.9v-15.5c0-.2-.2-.3-.3-.3Z"/>
  </g>
  <path d="M44.3,33.7c-.7-.7-1.5-1-2.4-1s-1.8.3-2.5,1c-.7.7-1,1.5-1,2.4,0,.9.3,1.8,1,2.4.7.7,1.5,1,2.5,1s1.2-.2,1.7-.5c.5-.3.9-.7,1.3-1.2.3-.5.5-1.1.5-1.7,0-.9-.4-1.7-1.1-2.4Z"/>
</svg>