<svg width="29" height="29" viewBox="0 0 29 29" fill="none" xmlns="http://www.w3.org/2000/svg">
<g id="signal-icon">
<g id="Vector" filter="url(#filter0_d_1789_684)">
<path d="M27.6191 17.6339C29.8763 8.21675 21.7571 -0.503042 12.0833 1.21875C4.27979 2.60808 -0.672695 10.6539 1.5908 18.2934C1.77793 21.0514 0.792729 23.7817 1.04013 26.5C1.07162 26.8451 1.11914 27.1339 2.0937 27.434C4.84751 27.6205 7.93684 27.1817 10.6502 27.4295C11.0946 27.47 11.6191 27.6719 12.0824 27.7484C14.1741 28.0926 16.1775 28.0241 18.1073 27.4926C22.8682 26.2375 26.5135 22.4758 27.6191 17.6339Z" fill="black"/>
</g>
<path id="Vector_2" d="M0.931885 16.0113C-1.03024 4.96796 10.7652 -3.24606 20.3801 2.64218L20.7375 2.86972C24.3842 5.27563 26.4813 9.38844 26.4768 13.6519V14.1519H26.4504C26.4209 14.9605 26.3205 15.7482 26.1536 16.5094L26.1526 16.5133C26.0953 16.7653 26.03 17.0159 25.9573 17.2652H25.9563C25.8702 17.5594 25.6933 17.9618 25.552 18.2945C25.4775 18.4699 25.4104 18.633 25.3577 18.774C25.3021 18.9228 25.2749 19.0158 25.2678 19.0611L25.2659 19.0728C25.2678 19.0623 25.269 19.0558 25.2688 19.0582C25.2686 19.0599 25.2683 19.0625 25.2678 19.068C25.2675 19.0725 25.2666 19.0804 25.2659 19.0885L25.2581 19.1764L25.22 19.2564C24.3912 21.0103 23.1803 22.5344 21.6887 23.7252L21.592 23.8023L21.47 23.8258H21.467C21.4633 23.8278 21.4591 23.8308 21.4543 23.8336C21.4178 23.8545 21.3676 23.8857 21.304 23.9273C21.1769 24.0106 21.0181 24.1206 20.8489 24.2398C20.5305 24.4642 20.1416 24.7448 19.9426 24.856L19.9417 24.8551C18.4483 25.6927 16.8429 26.2073 15.1985 26.4088H15.1946C14.8544 26.4481 14.5104 26.473 14.1624 26.4859V26.5035L13.6653 26.5055C12.3942 26.5119 11.1153 26.3362 9.85962 25.984L1.74146 25.9869H1.24048V17.0904C1.24048 17.1223 1.24374 17.1081 1.21509 17.0016C1.19214 16.9162 1.15996 16.8107 1.12329 16.693C1.07381 16.5342 1.00903 16.3311 0.966064 16.1637L0.931885 16.0113Z" fill="#FFE23B" stroke="black"/>
<path id="Vector_3" d="M13.2492 3.92579C15.0368 3.74379 16.7371 4.99256 16.837 6.83869C16.4735 9.35786 16.4555 12.0212 16.0903 14.5268C15.8015 16.5099 13.6756 17.5839 12.0284 16.3036C11.2763 15.7189 11.1576 15.0116 11.0415 14.1223C10.7698 12.0473 10.4432 9.37949 10.365 7.31441C10.2966 5.50973 11.4338 4.11049 13.2492 3.92579ZM13.2465 5.00247C12.0725 5.16105 11.4104 6.0269 11.4418 7.18017C11.5084 9.61374 12.0995 12.2455 12.2146 14.7016C12.6573 16.1676 14.6095 16.127 14.9981 14.6476C15.1124 12.214 15.6612 9.65879 15.7538 7.24414C15.8096 5.78814 14.6859 4.80876 13.2465 5.00337V5.00247Z" fill="black"/>
<path id="Vector_4" d="M13.2475 17.9517C16.9394 17.5228 17.3452 23.064 13.8342 23.328C10.3232 23.592 9.88315 18.3428 13.2475 17.9517ZM13.3123 19.0286C11.3219 19.3449 11.6999 22.5116 13.8297 22.2439C15.9595 21.9763 15.5123 18.6789 13.3123 19.0286Z" fill="black"/>
<path id="Vector_5" d="M13.2454 5.00257C14.6849 4.80796 15.8085 5.78734 15.7527 7.24334C15.6601 9.6589 15.1113 12.2132 14.997 14.6468C14.6084 16.1262 12.6562 16.1659 12.2136 14.7008C12.0984 12.2456 11.5073 9.61385 11.4408 7.17937C11.4093 6.027 12.0714 5.16025 13.2454 5.00167V5.00257Z" fill="#FF8F8F"/>
<path id="Vector_6" d="M13.3134 19.0294C15.5129 18.6797 15.8981 21.9857 13.8308 22.2453C11.7636 22.5049 11.3226 19.3458 13.3134 19.0294Z" fill="#FF8F8F"/>
<path id="Vector 195" d="M21.5 7.5C22.5 8.5 23.0774 10 23.0774 12" stroke="white" stroke-opacity="0.44" stroke-width="2" stroke-linecap="round"/>
</g>
<defs>
<filter id="filter0_d_1789_684" x="1" y="1" width="27.9995" height="27.9602" filterUnits="userSpaceOnUse" color-interpolation-filters="sRGB">
<feFlood flood-opacity="0" result="BackgroundImageFix"/>
<feColorMatrix in="SourceAlpha" type="matrix" values="0 0 0 0 0 0 0 0 0 0 0 0 0 0 0 0 0 0 127 0" result="hardAlpha"/>
<feOffset dx="1" dy="1"/>
<feComposite in2="hardAlpha" operator="out"/>
<feColorMatrix type="matrix" values="0 0 0 0 0 0 0 0 0 0 0 0 0 0 0 0 0 0 0.17 0"/>
<feBlend mode="normal" in2="BackgroundImageFix" result="effect1_dropShadow_1789_684"/>
<feBlend mode="normal" in="SourceGraphic" in2="effect1_dropShadow_1789_684" result="shape"/>
</filter>
</defs>
</svg>
