<svg width="42" height="42" viewBox="0 0 42 42" fill="none" xmlns="http://www.w3.org/2000/svg">
<g id="Group 483169">
<path id="Vector" d="M33.4853 36.6951C33.4549 36.7009 33.4245 36.7053 33.394 36.7125C33.0722 36.7982 31.3268 38.1382 30.7818 38.4431C28.4681 39.741 25.9806 40.5366 23.4321 40.8487C22.6536 40.9388 21.8621 40.9852 21.0561 40.9852V40.9997C19.0469 41.0099 17.0218 40.7282 15.0329 40.1591L1.84554 40.1635V26.634C1.84554 26.3436 1.415 25.204 1.33527 24.7539C-1.70752 7.62824 16.571 -5.07806 31.4588 4.03935C37.44 7.70229 40.906 14.2689 40.8988 21.0924H40.8713C40.8713 22.6212 40.7074 24.1035 40.3958 25.5248C40.3073 25.9139 40.2059 26.3015 40.0928 26.6892C39.8493 27.5211 39.0607 29.0469 38.9606 29.6843C38.9548 29.7162 38.9534 29.7481 38.9505 29.7801C37.6675 32.495 35.7932 34.8527 33.4853 36.6951Z" stroke="black" stroke-width="2"/>
<path id="Vector_2" d="M20.3898 5.42091C23.2702 5.12764 26.01 7.13987 26.171 10.1146C25.5853 14.1739 25.5563 18.4655 24.9678 22.503C24.5024 25.6985 21.0769 27.429 18.4226 25.366C17.2107 24.4238 17.0194 23.2841 16.8324 21.8511C16.3946 18.5076 15.8684 14.2088 15.7423 10.8812C15.6321 7.97321 17.4644 5.71853 20.3898 5.42091ZM20.3854 7.15584C18.4937 7.41136 17.4267 8.80655 17.4775 10.6649C17.5847 14.5862 18.5372 18.827 18.7227 22.7847C19.4359 25.1468 22.5816 25.0814 23.2079 22.6976C23.392 18.7762 24.2763 14.6588 24.4256 10.768C24.5155 8.42182 22.7049 6.84369 20.3854 7.15729V7.15584Z" fill="black"/>
<path id="Vector_3" d="M20.3871 28.0217C26.336 27.3305 26.9899 36.2593 21.3324 36.6848C15.6749 37.1102 14.9659 28.6519 20.3871 28.0217ZM20.4915 29.7569C17.2843 30.2666 17.8932 35.3692 21.3252 34.9379C24.7571 34.5067 24.0365 29.1935 20.4915 29.7569Z" fill="black"/>
</g>
</svg>
