<svg xmlns="http://www.w3.org/2000/svg" width="16" height="16" viewBox="0 0 16 16" fill="none">
  <path d="M8 0.0996094C12.3632 0.0996094 15.9004 3.63706 15.9004 8C15.9002 12.3628 12.363 15.8994 8 15.8994L7.52832 15.8857C6.43044 15.8214 5.35606 15.5271 4.37598 15.0205L4.3418 15.0029L4.30371 15.0137L1.24316 15.8672C1.08947 15.9101 0.926799 15.9106 0.772461 15.8701C0.618165 15.8296 0.477069 15.7495 0.364258 15.6367C0.25143 15.5239 0.170382 15.3828 0.129883 15.2285C0.0893977 15.0742 0.0909029 14.9115 0.133789 14.7578L0.988281 11.7002L0.999023 11.6621L0.980469 11.627C0.400238 10.5061 0.0980125 9.26208 0.0996094 8C0.0996094 3.63706 3.63683 0.0996114 8 0.0996094ZM8 1.09961C6.17001 1.09961 4.41509 1.82716 3.12109 3.12109C1.82715 4.41502 1.09961 6.17014 1.09961 8C1.09968 9.19273 1.40263 10.3396 1.9707 11.3574L2.07031 11.5371L1.19238 14.6855L1.14453 14.8564L1.31543 14.8086L4.46484 13.9297L4.64551 14.0303C5.5663 14.5422 6.59238 14.8366 7.64453 14.8906C8.69666 14.9447 9.74742 14.7566 10.7158 14.3418C11.6843 13.9269 12.5447 13.2951 13.2314 12.4961C13.918 11.6972 14.4132 10.7521 14.6777 9.73242C14.9423 8.71262 14.9695 7.64535 14.7578 6.61328C14.5461 5.58124 14.1007 4.61163 13.4561 3.77832C12.8114 2.94499 11.9849 2.26989 11.0391 1.80566C10.0933 1.34145 9.0536 1.09981 8 1.09961ZM8 10.8975C8.18561 10.8975 8.36385 10.9713 8.49512 11.1025C8.62635 11.2338 8.70015 11.4121 8.7002 11.5977C8.7002 11.7833 8.62635 11.9615 8.49512 12.0928C8.36384 12.224 8.18565 12.2979 8 12.2979C7.81435 12.2979 7.63616 12.224 7.50488 12.0928C7.37365 11.9615 7.2998 11.7833 7.2998 11.5977C7.29985 11.4121 7.37365 11.2338 7.50488 11.1025C7.63615 10.9713 7.81439 10.8975 8 10.8975ZM8 3.7002C8.13261 3.7002 8.25975 3.75292 8.35352 3.84668C8.44716 3.94042 8.5 4.06769 8.5 4.2002V9.19922C8.5 9.33175 8.44719 9.45898 8.35352 9.55273C8.25975 9.6465 8.13261 9.69922 8 9.69922C7.86739 9.69922 7.74025 9.6465 7.64648 9.55273C7.55281 9.45899 7.5 9.33175 7.5 9.19922V4.2002C7.5 4.06769 7.55284 3.94042 7.64648 3.84668C7.74025 3.75292 7.86739 3.7002 8 3.7002Z" fill="#141414" stroke="#141414" stroke-width="0.2"/>
</svg>