<svg xmlns="http://www.w3.org/2000/svg" width="19" height="21" viewBox="0 0 19 21" fill="none">
  <path d="M0.600037 8.18408V11.6081C0.600037 13.4611 0.600037 14.3881 0.821037 15.1441C1.34804 16.9441 2.75604 18.3601 4.55604 18.9901C5.15604 19.1661 5.75204 19.3531 6.90004 19.5221C7.57008 19.6178 8.2517 19.5954 8.91404 19.4561C9.21704 19.3941 9.46404 19.3411 9.67204 19.2961C10.162 19.1901 10.652 19.0631 11.102 18.8421C11.61 18.5941 12.005 18.3361 12.577 17.9091C12.919 17.6541 13.232 17.3431 13.857 16.7211L17.104 13.4911C17.2613 13.3349 17.386 13.1492 17.4712 12.9446C17.5563 12.7401 17.6002 12.5207 17.6002 12.2991C17.6002 12.0775 17.5563 11.8581 17.4712 11.6535C17.386 11.4489 17.2613 11.2632 17.104 11.1071C16.7856 10.7908 16.3549 10.6132 15.906 10.6132C15.4572 10.6132 15.0265 10.7908 14.708 11.1071L12.458 13.3461V8.18408" stroke="black" stroke-width="1.2" stroke-linecap="round" stroke-linejoin="round"/>
  <path d="M9.49304 5.9771V4.0751C9.49304 3.2601 10.157 2.6001 10.976 2.6001C11.794 2.6001 12.458 3.2601 12.458 4.0751V8.4991M6.52904 8.1801V2.0751C6.52904 1.2601 7.19304 0.600098 8.01104 0.600098C8.83004 0.600098 9.49304 1.2601 9.49304 2.0751V8.1841M3.56404 5.4451V8.1841V3.0801C3.57408 2.69358 3.73467 2.32627 4.0116 2.05644C4.28853 1.78661 4.65989 1.6356 5.04654 1.6356C5.43318 1.6356 5.80454 1.78661 6.08147 2.05644C6.3584 2.32627 6.519 2.69358 6.52904 3.0801V8.1841M3.56404 6.9791V6.0751C3.56404 5.2601 2.90104 4.6001 2.08204 4.6001C1.26404 4.6001 0.600037 5.2601 0.600037 6.0751V8.8131" stroke="black" stroke-width="1.2" stroke-linecap="round" stroke-linejoin="round"/>
</svg>