<svg width="21" height="21" viewBox="0 0 21 21" fill="none" xmlns="http://www.w3.org/2000/svg">
<path d="M14.0243 15.0408C14.0691 16.0886 13.6369 16.9795 12.5972 17.3837C12.5523 18.1568 12.6869 18.7455 12.1568 19.3969C11.272 20.484 9.57172 20.4487 8.76847 19.3067C8.34034 18.6944 8.37704 18.0587 8.38111 17.3484C7.36583 17.0226 6.901 16.0337 6.98255 15.0408C2.45252 12.1838 3.75322 5.39066 9.02535 4.20548C15.8184 2.67496 19.749 11.2969 14.0243 15.0447V15.0408ZM10.2119 5.38673C5.90611 5.6379 3.99379 10.8064 7.21089 13.5849C7.47592 13.8164 8.20578 14.201 8.32811 14.4443C8.59722 14.9819 8.00191 16.0612 9.11097 16.1671C9.76336 16.2299 11.2476 16.2299 11.8959 16.1632C13.0212 16.0455 12.324 14.9623 12.7073 14.3854C12.8459 14.1774 13.327 13.9459 13.5554 13.7771C17.2699 10.983 14.958 5.11595 10.2119 5.39066V5.38673ZM11.1823 17.5093H9.78783V18.2431C9.78783 18.5375 10.1752 18.8357 10.4688 18.8475C10.7134 18.8593 11.1823 18.6042 11.1823 18.3687V17.5093Z" fill="black"/>
<path d="M16.3198 15.1232C16.4748 15.1035 16.6746 15.1428 16.8091 15.2213C16.9111 15.2841 18.0079 16.3437 18.069 16.4418C18.436 17.0461 17.7306 17.729 17.0986 17.3758C16.9967 17.3208 15.8632 16.2299 15.8101 16.1396C15.5737 15.7314 15.8305 15.1938 16.3157 15.1271L16.3198 15.1232Z" fill="black"/>
<path d="M4.45051 15.1271C5.04173 15.0368 5.46171 15.6137 5.18444 16.1278C5.10697 16.273 4.14062 17.2109 3.97752 17.3208C3.33329 17.7564 2.59527 17.1246 2.90924 16.5006C2.97448 16.3711 3.99791 15.3743 4.15285 15.2644C4.24256 15.1977 4.33634 15.1467 4.44643 15.1271H4.45051Z" fill="black"/>
<path d="M18.8071 9.4171C19.1374 9.37001 20.3117 9.37001 20.593 9.47989C21.1924 9.71928 21.1068 10.6297 20.487 10.7396C20.2505 10.7828 18.856 10.7828 18.6399 10.7279C17.9916 10.563 18.012 9.52698 18.8071 9.41318V9.4171Z" fill="black"/>
<path d="M0.65443 9.41725C0.992858 9.37016 2.14269 9.36624 2.42811 9.49574C3.01934 9.75868 2.9011 10.6574 2.29764 10.7476C1.96329 10.7987 0.952083 10.7869 0.597346 10.7516C-0.169212 10.6809 -0.246683 9.54284 0.65443 9.41725Z" fill="black"/>
<path d="M10.3383 0.0101798C10.6849 -0.0447621 11.113 0.123988 11.1783 0.485035C11.219 0.7205 11.219 2.01164 11.1701 2.23533C11.0559 2.7769 10.167 2.86716 9.88978 2.35306C9.73892 2.0705 9.75115 1.08155 9.78377 0.732273C9.81639 0.383 9.96725 0.0690461 10.3424 0.0101798H10.3383Z" fill="black"/>
<path d="M3.35769 2.78084C3.57787 2.73767 3.79397 2.76122 3.97746 2.87895C4.1324 2.97706 5.02536 3.84044 5.13545 3.99349C5.58804 4.62925 4.85411 5.35919 4.18541 4.95105C4.03862 4.86079 3.10489 3.96602 3.00295 3.82082C2.7583 3.47154 2.90101 2.87503 3.35769 2.78477V2.78084Z" fill="black"/>
<path d="M17.2332 2.78069C17.8367 2.65903 18.2893 3.15743 18.0609 3.70293C17.9998 3.84813 17.013 4.82139 16.8499 4.92735C16.2098 5.34726 15.4636 4.70366 15.7979 4.0836C15.8673 3.95409 16.8255 3.03185 16.9845 2.91412C17.0579 2.8631 17.1476 2.79639 17.2373 2.77677L17.2332 2.78069Z" fill="black"/>
</svg>
