<svg width="60" height="69" viewBox="0 0 60 69" fill="none" xmlns="http://www.w3.org/2000/svg">
<path d="M16.1208 1.5H43.6673C51.9312 1.5 58.5 8.06877 58.5 16.3327V42.184C58.5 50.448 51.9312 57.0167 43.6673 57.0167H33.7082L33.2844 57.4405L20.1468 65.7045V57.0167H16.3327C8.06877 57.0167 1.5 50.448 1.5 42.184V16.3327C1.5 8.06877 8.06877 1.5 16.3327 1.5H16.1208Z" fill="white" stroke="black" stroke-width="3"/>
<path d="M32.013 14.4254H39.2175V33.2841C39.2175 35.4031 38.7937 37.3102 37.7342 39.0053C36.6747 40.7005 35.1914 41.76 33.2844 42.8195C31.3773 43.667 29.2584 44.0908 26.7156 44.0908C24.1729 44.0908 22.0539 43.667 20.1468 42.8195C18.2398 41.9719 16.7565 40.7005 15.697 39.0053C14.6375 37.3102 14.2137 35.4031 14.2137 33.2841V14.4254H21.4182V32.6485C21.4182 33.7079 21.6301 34.5555 22.0539 35.4031C22.4777 36.2507 23.1134 36.8864 23.961 37.3102C24.8085 37.734 25.6561 37.9459 26.7156 37.9459C27.7751 37.9459 28.6227 37.734 29.4703 37.3102C30.3178 36.8864 30.9535 36.2507 31.3773 35.4031C31.8011 34.5555 32.013 33.7079 32.013 32.6485V14.4254Z" fill="black"/>
<path d="M46.2101 44.0909C45.1506 44.0909 44.3031 43.6671 43.4555 43.0315C42.8198 42.3958 42.396 41.3363 42.396 40.4887C42.396 39.4292 42.8198 38.5816 43.4555 37.946C44.3031 37.3103 45.1506 36.8865 46.2101 36.8865C47.2696 36.8865 48.1172 37.3103 48.7529 37.946C49.6005 38.5816 49.8124 39.4292 49.8124 40.4887C49.8124 41.1244 49.8124 41.7601 49.1767 42.3958C48.7529 43.0315 48.3291 43.4552 47.6934 43.6671C47.0577 44.0909 46.422 44.0909 45.7863 44.0909H46.2101Z" fill="black"/>
</svg>
