<svg width="295" height="254" viewBox="0 0 295 254" fill="none" xmlns="http://www.w3.org/2000/svg">
<path d="M173.955 4H249.488C272.148 4 290.159 22.035 290.159 44.7241V115.7C290.159 138.389 272.148 156.424 249.488 156.424H222.18L221.018 157.588L184.995 180.277V156.424H174.536C151.877 156.424 133.865 138.389 133.865 115.7V44.7241C133.865 22.035 151.877 4 174.536 4H173.955Z" fill="transparent" stroke="#ffffff" stroke-opacity="0.1" stroke-width="8"/>
<path d="M217.532 39.4883H237.286V91.266C237.286 97.0838 236.124 102.32 233.219 106.974C230.314 111.628 226.247 114.537 221.018 117.446C215.789 119.773 209.979 120.936 203.006 120.936C196.034 120.936 190.224 119.773 184.995 117.446C179.765 115.119 175.698 111.628 172.793 106.974C169.888 102.32 168.726 97.0838 168.726 91.266V39.4883H188.481V89.5207C188.481 92.4296 189.062 94.7567 190.224 97.0838C191.386 99.4109 193.129 101.156 195.453 102.32C197.777 103.483 200.101 104.065 203.006 104.065C205.911 104.065 208.235 103.483 210.56 102.32C212.884 101.156 214.627 99.4109 215.789 97.0838C216.951 94.7567 217.532 92.4296 217.532 89.5207V39.4883Z" fill="white" fill-opacity="0.12"/>
<path d="M256.46 120.937C253.555 120.937 251.231 119.773 248.907 118.028C247.164 116.282 246.002 113.373 246.002 111.046C246.002 108.138 247.164 105.81 248.907 104.065C251.231 102.32 253.555 101.156 256.46 101.156C259.365 101.156 261.689 102.32 263.432 104.065C265.757 105.81 266.338 108.138 266.338 111.046C266.338 112.792 266.338 114.537 264.594 116.282C263.432 118.028 262.27 119.191 260.527 119.773C258.784 120.937 257.041 120.937 255.298 120.937H256.46Z" fill="white" fill-opacity="0.12"/>
<path d="M119.938 181.666L148.741 184.339C157.382 185.141 163.613 192.656 162.81 201.308L160.298 228.374C159.495 237.027 151.988 243.267 143.347 242.465L132.933 241.498L132.449 241.901L117.909 249.278L118.753 240.182L114.765 239.812C106.123 239.01 99.8932 231.495 100.696 222.843L103.208 195.777C104.011 187.125 111.518 180.885 120.159 181.687L119.938 181.666Z" fill="transparent" stroke="white" stroke-opacity="0.12" stroke-width="5"/>
<path d="M135.299 196.741L142.832 197.441L141 217.186C140.794 219.404 140.165 221.36 138.893 223.032C137.62 224.704 135.966 225.669 133.869 226.593C131.793 227.296 129.536 227.534 126.877 227.287C124.218 227.04 122.044 226.391 120.132 225.318C118.22 224.246 116.793 222.771 115.85 220.893C114.907 219.015 114.649 216.978 114.855 214.759L116.687 195.014L124.221 195.713L122.45 214.793C122.347 215.902 122.486 216.81 122.847 217.738C123.208 218.667 123.811 219.394 124.656 219.92C125.501 220.446 126.366 220.75 127.474 220.853C128.582 220.956 129.489 220.816 130.416 220.455C131.344 220.093 132.07 219.49 132.596 218.643C133.121 217.797 133.425 216.93 133.528 215.821L135.299 196.741Z" fill="white" fill-opacity="0.12"/>
<path d="M147.261 229.179C146.153 229.076 145.308 228.55 144.484 227.802C143.881 227.075 143.541 225.925 143.623 225.037C143.726 223.928 144.251 223.082 144.978 222.478C145.926 221.894 146.853 221.533 147.961 221.636C149.069 221.739 149.914 222.265 150.517 222.992C151.341 223.74 151.481 224.648 151.378 225.757C151.316 226.422 151.254 227.088 150.528 227.692C150.023 228.316 149.538 228.719 148.853 228.879C148.147 229.261 147.483 229.199 146.818 229.138L147.261 229.179Z" fill="white" fill-opacity="0.12"/>
<path d="M73.5937 77.145L26.3201 81.2948C12.138 82.5397 1.85589 94.8168 3.10244 109.017L7.0019 153.439C8.24845 167.64 20.5122 177.938 34.6943 176.693L51.7856 175.192L52.5768 175.857L76.3692 188.078L75.0587 173.149L81.6043 172.575C95.7864 171.33 106.068 159.053 104.822 144.852L100.922 100.43C99.6759 86.2299 87.4121 75.9319 73.23 77.1769L73.5937 77.145Z" fill="transparent" stroke="white" stroke-opacity="0.12" stroke-width="6"/>
<path d="M55.1794 101.143L67.5433 100.058L70.388 132.464C70.7076 136.105 70.268 139.446 68.7055 142.519C67.143 145.591 64.7573 147.635 61.6443 149.743C58.4994 151.487 54.9269 152.534 50.5632 152.917C46.1994 153.3 42.4991 152.891 39.0984 151.722C35.6978 150.553 32.9605 148.592 30.8866 145.838C28.8127 143.085 27.7977 139.872 27.4781 136.231L24.6334 103.825L36.9973 102.739L39.7461 134.053C39.9059 135.874 40.3974 137.298 41.2525 138.691C42.1077 140.084 43.2945 141.08 44.813 141.681C46.3315 142.281 47.818 142.518 49.6362 142.358C51.4545 142.198 52.8771 141.707 54.2677 140.851C55.6584 139.995 56.6534 138.807 57.2528 137.286C57.8523 135.766 58.0881 134.278 57.9283 132.457L55.1794 101.143Z" fill="white" fill-opacity="0.12"/>
</svg>
